<svg aria-hidden="true" style="width:0;height:0;position:absolute;overflow:hidden" xmlns="http://www.w3.org/2000/svg"><defs><symbol id="icon-logo" viewBox="0 0 41 32"><path fill="#292b2a" style="fill:var(--color1,#292b2a)" d="m23.13 22.38-3.28-4.65s-3.6-5.1-3.62-5.1a9.53 9.53 0 0 0-1.28-.38l.88 1.25.64.91.72 1.03 1.31 1.85.9 1.27.94 1.34 1.16 1.63.3.45-1.22.87-1.32.93-2.65 1.89-3.05 2.15-3.4 2.42 1.19.34 11.78-8.2z"/><path fill="#b5b5b5" style="fill:var(--color2,#b5b5b5)" d="M4.66 22.7 4 21.81l1.76-1.15 1.6-1.14-.11-.21 1.5.52-4.09 2.88z"/><path fill="#464747" style="fill:var(--color3,#464747)" d="m4.69 22.75 5.45 7.49h.03l1.87-1.35 9.76-6.9-.02-.06-5.31-7.52-11.8 8.3.02.04z"/><path fill="#606060" style="fill:var(--color4,#606060)" d="m7.34 19.52-.36-.68c-.79-.15-1.58-.24-2.38-.28-.73-.09-1.46-.12-2.2-.07l-.9 1.94a10.09 10.09 0 0 0 2.49 1.38l2.04-1.33 1.31-.96z"/><path fill="#363837" style="fill:var(--color5,#363837)" d="M4.26 19.2c-.16.06-.34.02-.48-.07s-.27-.2-.4-.3a.9.9 0 0 0-.46-.22c-.25-.03-.5.13-.62.35-.13.22-.15.5-.04.73s.33.4.58.42c.22.02.42-.06.63-.1.26-.04.54 0 .79.1.19.08.36.2.54.3s.38.19.58.17c.28-.01.51-.2.7-.4a.84.84 0 0 0 .24-.44c.02-.2-.07-.38-.2-.51s-.33-.2-.51-.24a1.67 1.67 0 0 0-.84.04c-.2.06-.4.14-.5.18z"/><path fill="#1c1e1d" style="fill:var(--color6,#1c1e1d)" d="m7.21 19.25 1.53.59.7-.49 1.19-.82 1.84-1.33 1.85-1.27 2.15-1.52-.83-1.19-.68-.95-1.2.87-2.32 1.74-1.76 1.34-1.95 1.46-1.4 1.04.66.1.22.43z"/><path fill="#dfe0e2" style="fill:var(--color7,#dfe0e2)" d="m10.54 18.57-1.67-.53-1.14-.35.92-.7 1.01-.77 1.48.48 1.33.5-.93.67-1 .7zm3.76-2.66-1.29-.48-.79-.28-.76-.28 1.26-.96.47-.33 1.36.46 1.59.6-1.13.8-.7.47z"/><path fill="#1c1e1d" style="fill:var(--color6,#1c1e1d)" d="m5.28 18.6 4.51-9.3.76-1.58-.99-.54-1.68-.89-.79-.03-.92-.02 1.05.55 2.33 1.16-1.5 3.06-3 6.06-.73 1.45.96.07z"/><path fill="#b5b5b5" style="fill:var(--color2,#b5b5b5)" d="m2.1 15.27 2.42 2.85-.2.4a9.83 9.83 0 0 0-1.92-.04c-.23.45-.44.9-.64 1.35-.08.2-.17.4-.27.58l-1.45-.54 1.38-3.09 1.1-2.47 3.61-8.08 2.97 1.5.46.23-1.02 2.02-1.68 3.43L4.57 18l-.11.23z"/><path fill="#111011" style="fill:var(--color8,#111011)" d="m5.56 7.5.58-1.26 1.03.52L9.03 9l-.82 1.67-1.04-1.24-1.6-1.93z"/><path fill="#929392" style="fill:var(--color9,#929392)" d="M5.7 19.28c-.17-.13-.42-.17-.62-.07s-.35.3-.34.53a.601.601 0 0 0 .69.59.6.6 0 0 0 .49-.34c.05-.12.06-.27.01-.4s-.13-.24-.22-.3zm-2.75-.53c-.2-.03-.41.08-.52.25a.57.57 0 0 0 .5.87c.2 0 .38-.1.48-.26s.12-.37.03-.54a.71.71 0 0 0-.31-.29c-.06-.03-.14-.06-.18-.03z"/><path fill="#b5b5b5" style="fill:var(--color2,#b5b5b5)" d="M3.12 19.74c-.09-.31-.19-.62-.3-.9.12-.03.23 0 .32.05s.19.17.22.27c.04.15.03.31-.1.49a.34.34 0 0 1-.14.08z"/><path fill="#919191" style="fill:var(--color10,#919191)" d="M11.02 20.55c-.03-.04 0-.07.02-.08.03-.02.04-.04.04-.06 0-.03-.03 0-.05-.01-.04-.01-.04-.06-.06-.09.01 0 .05 0 .03-.05 0-.03.03-.03.04-.04.02 0 .04 0 .06.02 0 .01 0 .03.02.03v-.04c0-.05.01-.07.06-.08l.07-.03.02-.04c0-.02.02-.06.05-.05l.06-.03c.03-.02.07-.03.1.01 0-.03.04-.05.04-.04.05.04.08-.01.11-.01.02 0 .05 0 .05.03 0 .02-.03.02-.03.02-.03.03-.07.06-.12.05 0 .03-.03.02-.04.05-.02.02-.05-.02-.07-.02l-.06-.02c-.01.02-.02.04-.05.04-.03 0-.04.04-.04.08l.06-.04c0 .05 0 .08.03.08-.02-.07 0-.1.05-.12 0 .01.03.01 0 .03 0 0-.02 0 0 .02l.02.01c.02 0 .04-.01.05-.03.03-.01.05-.02.04.04.03-.04.05-.08.08-.02 0 .02.02.02.05 0 .01 0 .02-.02.04 0 .02 0 .03 0 .03-.03v-.04c-.02-.02-.03.02-.05.01l-.02.03c-.05-.04 0-.06.01-.08.02 0 .05.01.07.03.03.03.03.08.07.1.01 0-.01.05.03.06l.01.02c.01.05.02.06.07.05h.01c-.02.04.04.03.05.06 0 .02-.02.03-.04.02-.02 0-.06 0-.03-.05-.03.02-.04.04-.05.06 0 .02-.01.02-.03.02-.02 0 0-.02 0-.03.02-.02.03-.04 0-.06v-.02l-.02.01h-.07c0 .02.03.03.02.05-.06-.02-.1.04-.15.02.01-.03 0-.05 0-.07-.02-.03 0-.06.01-.05.06.04.1 0 .16 0l-.05-.05c-.06 0-.12.02-.18 0v.01c-.02.07-.08.06-.13.07.03.07.03.07.09.01h.03c.04.01.03.04.03.07-.03.02-.02.03 0 .05 0 .02.04.04 0 .07a.17.17 0 0 1-.04-.09c-.03.03-.07-.01-.1 0l-.01.02c0 .06.02.1.07.13.02.02.04 0 .06 0h.04l.01.02c-.04.01-.02.06-.05.08l-.02-.04c0-.01-.03-.03-.04-.01-.01.05-.06.02-.08.02l-.04.02c-.03-.02-.02-.07-.06-.08 0-.04.03-.03.06-.03 0-.03-.04-.06-.02-.09v-.01c-.06 0-.06 0-.05-.05 0-.02.02-.05-.03-.05v-.02c.03 0 0-.04.02-.07h-.02c0-.03-.07-.03-.04-.08-.03 0-.05.02-.06.05-.01.04 0 .04.03.03v.02c0 .04.01.08.07.08-.01.02 0 .06-.04.06-.03 0-.03-.04-.04-.06v-.01c-.05-.03-.09-.06-.14-.02.01.02.02.03.04.03.03 0 .04.02.06.04 0 .03-.04-.01-.05.02.03-.01 0 .04.03.03.03-.02.04-.01.05.02 0 .01.02.02.03.01.05-.02.04.03.04.05v.04a.22.22 0 0 0-.13-.1c-.02 0-.04.02-.05.03-.01 0-.03.03-.02.04.03.02.04.07.08.07 0 .02-.01.03-.04.02a.098.098 0 0 1-.07-.08h.01zm.36-.17c0-.03-.02-.04-.03-.03-.02 0-.03.02-.01.04 0 0 0 .04.02.02.02 0 .05 0 .02-.03zm.3-.04h-.02l.01.02v-.02zm7.76 1.95c-.04.03-.03-.02-.03-.03-.02-.03.03 0 .02-.03 0-.02-.02 0-.04-.02-.01.03-.06.04-.07.07 0 .04-.04.08-.09.06h-.04c-.03.01-.02-.02-.03-.02s0-.03 0-.03c.03 0 .03-.03.05-.03l.02.05c0 .02.02.02.03.02l.02-.03c-.03-.04 0-.07.02-.1 0-.01.02-.02 0-.03.03 0 .05-.04.09-.03h.02c.03.06.03-.01.04 0 .02 0 .01 0 .02.02s.02.04.05.02c.01-.01.05 0 .04-.03-.01-.03-.03-.05-.06-.03h-.01c-.04-.04-.1-.03-.14-.03-.02 0-.07-.01-.03-.06V22c.03-.05.03-.05.07 0 .04.04.1.05.17.04.04-.01.07 0 .08.03 0 .02 0 .06-.04.08-.02.01.01.04 0 .06v.03c-.06.02-.03.08-.03.12v.05c-.01.03-.05.05-.06.1 0 .02-.05.05-.03.09 0 0 0 .02-.02.02 0 0-.03-.01-.02-.03v-.03c-.02 0-.02.01-.02.02l-.04.08-.01-.03c-.02-.02-.03-.06-.07-.03l-.03-.01h-.03c0 .02.01.01.02.02.03.01 0 .03 0 .05.03.01.05-.03.07.02s-.02.05-.03.07c-.01-.04-.01-.08-.07-.08-.02 0-.02-.03-.03-.04 0-.01 0-.02-.02-.02v.02c-.01.01 0 .04-.03.03-.03 0-.04-.03-.04-.05s.02-.03.04-.02c.02 0 .02-.02.03-.03 0-.01 0-.04.03-.05.01.05.05.05.09.04.01 0 .02-.02.04-.01s.03-.01.03-.03c0-.03-.02 0-.03 0-.02 0-.02-.03-.02-.04-.02-.03-.03-.06-.07-.03-.01.01-.02 0-.03-.04h.12c.07 0 .03-.04.03-.07.03 0 .07.02.09-.03v-.03c-.02 0-.02.01-.02.02zm.04-.05v-.02c0-.01 0-.01 0 0l-.01.01h.01zm0-.05v.01zM8.23 24.73c.02-.03.05-.04.07 0 0 .02.02.02.04.02 0 .03-.01.03-.03.02-.03-.01-.03.01-.03.02 0 .03.01.02.02.01h.03l.06.03s-.02.02-.03.01c-.04-.02-.07 0-.1.03-.02-.02-.02-.03-.04 0-.03.03-.12.01-.14-.04 0 0 0-.04-.03-.03-.01 0-.04 0-.02.04l-.05.03c0-.04.01-.05.05-.05-.03-.03-.06-.04-.09-.05-.02-.01-.06 0-.04-.05.01-.02-.01-.02-.02-.02-.03 0-.06 0-.07.03-.03.03 0 .04.03.05-.04.04-.1.03-.14.03-.02-.03.02-.08.07-.1.02 0 .04-.04.07-.01-.01-.02 0-.07-.04-.04l-.01-.01c-.01-.04-.04-.05-.07-.03H7.7v-.02h-.02c-.04.05-.05.04-.07 0-.02-.05-.05-.07-.1-.04 0 0-.02.03-.03.01-.01-.02-.04-.04-.03-.07 0-.02.03 0 .05 0l-.03-.07c.03 0 .03.03.04.04v.01h.02s.02-.04.02-.02c.01.04.07.02.07.07 0 0 .02.02.03 0 .01 0 .02-.01.01-.03-.02-.05-.1-.1-.15-.1-.03 0-.04 0-.04-.03.02-.02.05 0 .06-.03h.02c.01.05.02.02.04 0 .03 0 .04.01.06.04.01.01 0 .06.04.04h.01c-.02.05.02.05.04.07.03.03.09.03.08.09l.02.02.03-.01a.15.15 0 0 1 .08-.06c.01 0 .03 0 .04.03-.02.03.01.05 0 .07 0 .05.01.05.04.04s.03 0 .05.02c-.03-.01-.03.02-.06.01-.02-.01-.03 0-.03.02-.01.03.01.02.02.03.05 0 .1.02.14.03l.02-.01c0-.04.01-.03.03 0 0 .01.03.02.04 0 0 0 .04-.03 0-.04zm4.9-6.25c.02 0 .02 0 .02.02 0 .01-.02.02-.03.01h-.05s-.02-.02-.03 0-.02.03 0 .05c0 .01.02.02.04 0 0 .01.01-.02.02.01.02.05.01.1.05.15v.02h-.02c-.04-.06-.08-.03-.12 0-.02-.01 0-.05-.04-.05.02-.04 0-.08 0-.12s0-.04-.03-.04-.06 0-.07-.05h-.02c-.01.03-.04.02-.05 0 0 0 0-.02.02-.03.04-.01.07-.03.11-.02-.03-.02-.05-.03-.03-.07h-.04c-.01 0 0-.04-.02-.02-.01 0-.02.03 0 .04.03.01.02.04 0 .05 0 0-.02 0-.03-.02 0 0 0-.02-.02-.02-.04.05-.01.1.02.13.03.02.02.03 0 .05-.03 0-.04.02-.02.04.02.01.03.02.02.04-.01.02-.03.01-.05 0-.02 0-.04-.03-.08-.01.04.01.04.05.08.04.02 0 .03 0 .03.03s-.02.03-.04.02l-.05-.03c-.03-.05-.06-.05-.1-.03-.02 0 0-.05-.03-.03-.04-.05-.01-.1-.02-.15 0-.01 0-.04.03-.04s.02.02.03.04c.02.03-.01.01-.02.03.05-.01.07 0 .07.05 0 .03.03.02.05.03-.05-.1.06-.04.07-.08-.02-.03-.05-.04-.08-.02-.02.02-.04.02-.05 0 0-.02 0-.04.03-.03.02 0 0-.03.01-.05h-.08c.03-.02.02-.06.06-.04.02.01.02 0 .03-.01 0-.02 0-.02-.02-.03a.08.08 0 0 1-.05-.06c.03 0 .07-.02.09.02h.02c.03-.05.07 0 .1 0 .03.01.05.02.08 0 .04-.02.07-.02.1 0 0 .03-.03.03-.04.03-.08-.02-.04.03-.03.06.02.03 0 .08.03.1l.1-.02c.03-.03.04.04.06 0zM9.8 21.65c-.02 0-.03-.03-.05-.03-.02-.04 0-.07.02-.1.03-.03.07 0 .1-.04-.05-.02-.07-.07-.07-.13 0-.03-.06-.07-.1-.06s-.03 0-.04-.02c-.02-.04.01-.03.03-.04l.07-.05c.02.02.02.07.06.05.02 0 .02.01.03.03.01.02.04.01.05.03.03-.02 0-.03 0-.05.03.01.06 0 .07.04 0 .02.04-.02.05.02.05-.03.05.04.08.05-.03.02-.06.05-.07-.01l-.03-.01c-.03 0-.06.03-.05-.04 0-.02-.02 0-.03 0-.03 0-.03.02-.02.03v.05c0 .02-.03.05.02.03.02 0 .02.01.01.02 0 .02 0 .05-.05.04.1.1.1.1.16.03 0 .03.03.05.06.04v.01h.02c-.01.02.01.01.02.02-.01.02.03.03 0 .05-.02-.01-.04 0-.05.03l-.01-.01c0-.02-.03-.06-.03-.05-.03.02-.04 0-.06-.01l-.02.01c-.02.01-.04.03-.06.02 0-.03 0-.04-.03-.05H9.8v.03c.02.02-.01.05 0 .07zm-2.57 2.51c-.02.01-.04.03-.04-.02 0-.03 0-.02-.02 0h-.02c-.01-.03-.07-.07-.1-.06-.01 0-.02.02-.03 0-.02-.04-.08-.01-.1-.04-.02 0-.03 0-.03-.02-.01-.03-.02-.06-.07-.04-.04 0-.03-.03-.02-.05-.03-.02-.06.04-.08-.01 0-.02-.03-.04 0-.06.03-.02.06-.04.1 0v.02c0 .02.02.03.02.03.05-.02.06.02.09.03.02.02.05.05.07 0 0-.02.04 0 .07 0 .02-.01.03.02.03.04.01.02 0 .04-.03.03L7.03 24c0 .03.04.06.09.07.01-.01-.04-.03 0-.04.02 0 .05 0 .05.03s0 .05.02.06c.03 0 .02-.04.04-.05 0 .04.02.06 0 .1zm.91-1.86a.07.07 0 0 1-.06.02c-.04-.01-.05 0-.03.04a.06.06 0 0 0-.02.07l-.01.02c-.02 0-.02.02 0 .02.02.01.04.05.07.06.03 0 .02.05.06.06 0 .01 0 .04-.02.03-.04 0-.08.02-.1-.01H8c-.01.01-.02.02 0 .04l.02.08c-.02-.01-.05 0-.07 0-.02 0-.04-.04-.07 0-.01-.03.03-.05 0-.07.05.01.06-.02.06-.04-.02-.08.03-.15.02-.23 0-.03.02-.05.04-.05 0-.03-.03-.02-.03-.04l.05-.02.02.02v-.01c0-.02-.01-.01-.02-.01-.01-.03.04-.04.03-.07.02-.02.04-.01.05.01 0 .02-.02.03-.04.05.05-.03.05.03.08.04zm2.6-1.08c.05 0 .08 0 .07.06h-.02v.02c.03 0 .03.02.03.04l.01.05c.06.02.08.07.1.12.03-.01-.02-.04.02-.04.02 0 .03 0 .03.03-.01.03-.02.05-.04.06-.03 0-.04-.02-.05-.04-.02-.03-.04-.07-.09-.07-.02 0-.05-.03-.06-.06.01-.01.02-.03 0-.03l-.02.02v.04c.01.02 0 .03-.01.04l-.04-.01c0-.04-.01-.01-.03-.01 0 0-.02 0-.03-.02 0-.02.02-.01.03-.02.04-.02.05-.06.01-.08-.06-.03-.04-.07-.03-.1v-.06a.7.7 0 0 1 .04.01c-.02.03 0 .05 0 .08.03-.02.06 0 .09 0v-.03zm-.02-.62c.01.02.03.04.02.07-.03.02-.03.05 0 .08v.02h-.1c0-.03.03-.06.04-.09 0-.01.03-.03 0-.06-.02-.02-.04-.03-.07-.01-.02 0-.04.03-.06 0l-.07-.05v-.02c.02-.03.02-.05-.02-.06l-.02-.01c.02-.02.02-.06 0-.06a.12.12 0 0 0-.09 0c-.04.02-.04-.01-.05-.03.06 0 .08-.05.13-.05-.02.02 0 .04.02.05.03.02.06.03.06.07 0 .03.03.02.05.02 0 .02.01.04.03.04.04-.02.07 0 .1.02l.04-.01c0 .02-.02.03-.03.04 0 .02 0 .04.02.03z"/><path fill="#919191" style="fill:var(--color10,#919191)" d="M7.89 22.66c-.05 0-.06 0-.06-.05-.03 0-.07.02-.04-.05v-.01c-.04-.04-.04-.04 0-.09-.05-.02-.1-.01-.13.04 0 .01-.01.04-.03 0h-.01c-.02 0-.02.04-.05 0-.03-.03-.02-.05 0-.08.03 0 0 .04.03.03.01 0 .05 0 .03-.04l.01-.02c.06-.02.1-.01.15.03.03.02.05 0 .07 0 0 .03 0 .05.02.08.01.02.03.04 0 .05h-.04.01l.02.01c.04.03 0 .07.02.1zm2.93-2.21-.01-.02c-.07 0-.09-.01-.1-.08a.14.14 0 0 0-.03-.1c-.02-.01-.02-.03-.02-.05.02-.01.03.05.06.02 0-.01.03 0 .02-.03-.02-.03 0-.05.03-.04.03.02.05 0 .07 0h.13l.01.03c-.02.04 0 .09-.02.12l-.04.02a.14.14 0 0 1-.02-.14c-.04 0-.06.03-.1.02-.02 0-.06.02-.03.07.01.02.04.05.02.1.02-.02.04-.06.07-.02.01.02-.03.05 0 .08 0 0-.03 0-.04.02zm-.07-.12v-.01zm3.82 4.37c.06-.02.1 0 .13.04l-.02.03c.06 0 .07 0 .05.06-.02-.05-.04-.05-.07-.01v-.02c-.02-.01-.03.02-.05 0-.01 0-.02-.02-.04 0 0 .02.04.02.02.06l-.01.03c-.02 0-.04 0-.04-.02-.01-.05-.04-.06-.08-.08-.02-.01-.04-.05 0-.07.04-.03 0-.04-.02-.06l-.03-.02c0-.03 0-.05.03-.05 0 0 .01.02.03.02.03-.01 0-.03 0-.04.09.04.1.06.07.13-.03.04.02.05.03.08 0-.02.04-.05 0-.07zM7 23.37h-.02l-.1-.13c-.01 0-.02-.02 0-.03.02-.04-.01-.05-.04-.06-.02 0-.04 0-.03-.04.01-.03.04 0 .05 0 .02.02.06.03.05.08-.01.02.01.02.02.02.04.02.07.02.09.07 0-.03.02-.06.03-.06l.11-.01c.02 0 .04.02.02.04-.02.01-.03.05-.07.04-.04 0-.1.05-.11.08zm7.23 1.32c.01-.02.03-.03.05 0l-.01.16c0 .03-.03.06-.05.1-.03.03-.06.02-.1.01.03.04.07.06.04.1 0 .02-.02.03-.03.02l-.02-.01c.03-.05-.03-.05-.03-.08-.04 0-.01.06-.05.05-.03 0-.03-.04-.04-.06h.02c0-.07.03-.06.06-.02.03.03.04 0 .06-.02 0-.01 0-.04.04-.02.02.01.04-.01.05-.03.02-.02-.02 0-.03-.02l.01-.02c.03-.04-.03-.05-.03-.08.01-.03.04 0 .08-.01-.05-.02-.02-.05-.02-.07zm.73-6.51c-.02-.01-.02.02-.04.02l-.01-.03c0-.01 0-.04-.03-.03-.03 0-.05-.02-.07-.04.01-.07.07-.1.13-.13h.01c.03.02.06.05.1.04.02 0 .02.02.01.03 0 .03-.02.04-.05.03.02.03.01.05 0 .08 0-.03-.04-.05 0-.07v-.01l-.1-.01-.04.04c0 .01.01.02.03.02.06-.02.07 0 .06.05v.01zm-2.4.46c.05-.02.01.03.03.03.01.03.04.02.05.04 0 .01-.02.03 0 .04.02.01.02-.02.03-.03.04.01.04.04.03.07-.02.02-.01.03 0 .05v.03c-.03.02-.05 0-.07 0-.02.02-.02.04.01.05.02 0 .02.03.03.04-.01 0-.03 0-.02.03v.03c-.03 0-.05 0-.05-.05l-.01-.02-.02-.04c-.02-.04 0-.05.03-.06.04-.01 0-.03 0-.05 0-.02-.02 0-.04 0v-.02l-.01-.02v-.03c.02-.02 0-.03 0-.04 0-.02 0-.04.02-.05zM8.92 21.6c-.03-.06-.04 0-.07 0-.02 0-.05.01-.06.04h-.03c0-.03-.02-.04-.03-.07l-.02-.02c-.04.03-.07-.01-.1-.02-.02 0-.02-.01-.02-.03s.01-.02.03-.02c.06 0 .1.04.13.08l.01.01c.04.02.12-.03.13-.07h-.1c0 .01-.03 0-.02-.01 0-.01.02-.04.03-.03.04.03.08 0 .12.02s.04.04.03.08l-.02.03h-.02z"/><path fill="#919191" style="fill:var(--color10,#919191)" d="M14.17 24.77c0 .03.05.04.03.08v.02c0 .01.04 0 .02.02-.01.02-.03.04-.05.03-.03-.02-.03 0-.04.02-.02.02-.03.05-.06.02-.03-.04-.06-.05-.06.01l-.02.01c0-.03-.01-.04-.03-.05-.04-.01 0-.04 0-.06 0-.02.02-.01.04 0l.03-.01c0-.02 0-.04-.02-.04l-.03-.01c.02 0 .03-.05.05-.01 0 .02.03.03.05.03 0 .03.03.02.05.03 0-.03.03-.05.02-.08h.02zm-.2.14h.04c-.01-.02-.02 0-.03 0zm-5.68-.01.02.02c-.02.02-.04.05-.02.08-.03 0-.02.04-.05.03H8.2C8.19 25 8.16 25 8.14 25c-.03-.02-.07 0-.1 0S8 24.98 8 24.96c-.02-.02 0-.04 0-.06.02-.02.03 0 .04 0 .02.01.04.03.06 0l.02.01c0 .03.04.05.06.04.03-.02.09-.02.11-.06zm10.68-3.78-.01-.03c.07-.03.12.02.12.11 0 .03.02.06 0 .09-.02.01-.03.03-.04.01-.02-.03-.06-.02-.08-.03-.03-.01-.04-.04-.03-.06 0-.03.02-.02.04-.01 0 0 .03 0 .01-.02-.02-.02.01-.04 0-.06zM8.16 25.1c.08.02.16-.02.24.03h.01c.02-.01.05-.01.05.02s-.03.07-.06.06c-.06-.03-.13-.01-.2-.05-.02-.01-.03-.03-.04-.06zm-1.72-1.78c.03-.02.05-.02.08 0 .02.02.07.01.08 0 .05 0 .09.04.14.02 0 0 .03 0 .03.02 0 .01 0 .04.02.04-.04.03-.08 0-.12-.01-.02-.02-.04 0-.06 0l-.11-.01a.1.1 0 0 1-.07-.04h.02v-.02zm11.07-5.15-.08.04c-.03.02-.05 0-.05-.02 0-.07-.06-.07-.1-.1.02 0 .05 0 .05-.06 0-.04.05-.01.08-.03v.03c.01.03.03.05.05.06.04.02.05.04.05.08zm-.14-.11c-.03 0-.03.03-.02.03.01.02.04.03.05.02.02 0 .01-.03 0-.05 0-.04-.02 0-.03 0zm-9.2 4.76h-.01c-.05-.01-.06 0-.06.05l-.01.01c-.04-.02-.03-.06-.06-.1-.03.04-.07.06-.09.1a.67.67 0 0 0-.04.02l-.02-.05c0-.02-.01-.05.03-.04.02.01.05 0 .06-.02.06-.05.06-.06.12-.08 0 .02-.01.05.04.04.04 0 .05.03.04.07zm-.07-.74c.02.03.05.05.04.09-.04-.02-.07-.01-.09.03-.04.01-.05.05-.08.05a.12.12 0 0 1 .01-.1c.01-.01.02-.03 0-.03-.02-.03.02-.03.03-.04.01.01.02.05.05 0 .01-.02.03 0 .04 0zm8.16-4.28h-.03c-.03-.02-.03-.07-.1-.05-.04 0-.05-.06-.1-.07l.01-.03h.03c.03 0 .05.02.09 0 .01 0 .1.08.1.1v.03c-.03 0 0 .01 0 .02z"/><path fill="#919191" style="fill:var(--color10,#919191)" d="M13.98 24.8c0 .02.01.02.02.02.03 0 .03.02.02.03 0 .03-.01.01-.02.01-.02 0-.05-.02-.05 0 0 .03-.03.06.01.07.02 0 .03.02.03.04-.03-.01-.03.01-.03.02-.02-.04-.06-.07-.06-.13 0 .01 0 .01 0 0 0 .02-.04.02-.1.03.05-.04.12-.03.1-.1 0 0 .02 0 .03-.02 0 .03 0 .05.03.06l.02-.02zm-.71-6.3c-.03-.02-.02-.05-.01-.07l-.01-.03c-.01 0-.02 0-.03.02 0 .01 0 .05-.04.03.03-.02.02-.04.02-.07h.03c.03-.02.05-.07.09-.02l.03.09c0 .03 0 .05-.04.06 0-.01-.02-.03-.04-.01zm.04-.07h.02c0-.02 0-.04-.03-.04h-.03c0 .03.02.02.03.03v.01zm-6.52 5.03.04.04c-.04 0-.08.01-.05.07 0 0-.01.03-.02.02-.04-.01-.08.03-.12.03l.02-.06c0-.02 0-.02.03-.02s.03 0 .05-.03c0-.02.02-.05.05-.05zm3.94-2.51c-.07 0-.07 0-.07-.07 0-.02-.02-.01-.03-.01-.02-.02 0-.06-.02-.08l.03-.01c0 .04.02.06.04.09.01.01.03.02.03 0 .01-.03.04 0 .06-.01l-.02-.05v-.01h.05l.01.03-.02.04c-.04.01-.07.03-.06.08zm2.47-1.28c.01 0 .04-.02.05 0 0 .03-.03.05-.05.06 0 0-.01-.02-.02-.01-.02 0-.01.02 0 .04h-.03c-.04-.01-.04.03-.07.04-.03-.02-.02-.05-.01-.08 0-.03.03-.01.05-.02l.07-.03zm-.07.07zm1.27-1.68-.05.01c0-.02-.02-.04 0-.06l.02-.05c.03 0 .06 0 .08-.02.01 0 .03.03.03.05 0 .01-.01.02-.04.02-.05 0-.06.01-.05.05zm-5.63 3.37c0 .02 0 .04-.02.05-.02.01-.03 0-.03-.01-.03-.05-.09-.02-.12-.03h-.03c0-.02 0-.04.02-.04h.06c.01 0 .03-.03.04 0 0 .02.02.03.04.02.01-.02.03 0 .04 0zm4.29-1.45c.01 0 .04-.01.05.01-.02.06-.01.06 0 .06.04 0 .03.03.04.05v.03c-.02.01 0 .04 0 .06-.03-.01-.04-.04-.08-.03 0-.04.03-.03.05-.04-.05-.03-.08-.08-.06-.14z"/><path fill="#919191" style="fill:var(--color10,#919191)" d="M10.76 20.81c0 .02 0 .03.02.05-.03 0-.05-.02-.06.01 0 .02-.03.01-.03 0-.03-.03-.05-.05-.04-.09.03-.02.06 0 .1 0l-.02.02c0 .03.01.02.03.01zm-.66.54c.02 0 .01-.01.02-.02.01-.04.04-.03.05 0 0 .02.02 0 .03 0 .05 0 .08.02.11.06 0-.04-.01-.06-.04-.04-.03.03-.06.02-.08 0-.01-.02-.02-.01-.03 0-.02.07-.04.02-.06 0zm-2.23.95c-.03-.03-.07-.01-.1-.03-.02-.01-.01-.04.01-.04h.03c.04-.07.05.03.09.02 0 0 0 .04-.03.05zm6.82 2.62c0 .02-.03 0-.03.02 0 .03-.05.04-.05.04a.108.108 0 0 1-.03-.07l.01-.02c.03 0 .05-.03.06-.05.02 0 .03 0 .03.03s-.01.03 0 .05zm4.1-4.08-.02-.08c.05-.01.1.03.1.1v.02l-.02.01c0-.05-.03-.03-.05-.03l-.01-.02zm-8.19.2c0 .04.03.07 0 .11h-.02c0 .03-.02.04-.04.02-.01-.01-.03-.03 0-.05v-.02c-.02-.04.03-.04.04-.06h.02zm8.2.36-.02-.01.02-.05c.03-.02.09-.02.08-.07l.05-.02c0 .02-.02.05 0 .07v.01c-.06 0-.08.06-.12.06v.01zM8.74 25.21l.04-.02c.02.02.05 0 .07 0h.02v.06c-.03.02-.06 0-.1.01-.03.01-.02-.03-.03-.05zm2.01-3.62c.02 0 0 .05.04.04-.03.02-.03.01-.05-.01 0-.02 0-.08-.06-.04l-.01-.01.01-.03c.03-.01.05-.01.06-.04 0 .01.03.02.02.03-.05.02-.01.04 0 .06zm.91-1.8c0 .06-.06.07-.08.12 0 0-.02.02-.03 0v-.02c.05-.02.04-.09.1-.1h.01zm-4.65 4.84v-.04c.07 0 .12 0 .16.06v.02c-.05 0-.08-.04-.13-.03H7zM7 23.86c0-.03.02-.05 0-.07-.01 0 0-.05.03-.03h.06c.01.03-.01.02-.02.02 0 .02-.04.01-.03.05.01.01-.03 0-.04.03zm7.14-5.84c-.02-.02.01-.06-.02-.08h.02c.01 0 .04 0 .05.03V18s0 .03-.02.03-.03 0-.03-.02zm5.16 4.73-.01.02c-.03 0-.03.02 0 .02v.05c-.02 0-.03 0-.04-.02l-.01-.03c-.01-.02-.02-.04 0-.06.01-.01.03 0 .04.01h.02zM7.42 24.69l.13.05v.01c-.04-.02-.08 0-.12-.01 0 0-.02-.01-.01-.03v-.02zm.92.26h.04v.01c.02-.01.03-.02.04 0l-.06.05c0 .02-.05.04-.07-.01.01-.02.05-.02.05-.05zm2.08-4.36c.02 0 0 .03.02.04.02 0 .04.01.02.03 0 .02-.03.02-.04.03-.01-.02-.03-.04-.02-.06l.01-.04zm3.52 4.61c-.01 0-.02.03-.04.01v-.06l.04-.01c.01.01.02.01.02-.01h.01c0 .02.02.03.04.04l-.01.03v.03l-.03-.01c0-.02-.01-.03-.03-.02zm-.01-.02v-.01zm4.84-4.47v-.03c.05-.01.05-.04.05-.07l.04.01c0 .02 0 .04-.03.04v.02c0 .04 0 .06-.04.04v-.01h-.03z"/><path fill="#919191" style="fill:var(--color10,#919191)" d="M14.69 24.92c-.02-.02-.02-.04-.02-.05s0-.04-.02-.03l.01-.03c.03-.03.05-.03.07.02-.01.02-.03.05-.01.07l-.02.01h-.02zm.02-.1v-.01h-.01zm-7.04-.09v.04c-.04 0-.06.02-.1 0v-.03c0-.01.02-.02.03-.01.02 0 .04.03.06 0h.01zm5.99.45c.02.05.04.03.07.01 0-.01.01-.02.03-.02 0 .04-.04.06-.07.1 0-.03-.02-.05-.04-.05-.03 0-.01-.02-.01-.04h.02zm-1.07-6.23.01.02c0 .04.02.05.05.05v.02c-.03 0-.03.03-.03.06h-.05c.05-.04 0-.1.02-.15zm-6.17 4.39h-.04c-.02 0-.03-.01-.02-.03 0-.02.01-.02.03-.02.02 0 .03.02.05.03-.02 0-.02 0-.02.02zm7.48 1.8v.07c-.02-.01-.03.01-.04.01-.03-.01.02-.05-.03-.05.01-.02.04-.01.06-.04l.02.02zM11.87 20l-.01.01c0-.02-.02-.02-.03-.03s-.04 0-.03-.03c0 0 .01-.03.03-.01.02 0 .05 0 .04.04V20zm1.49-1.73h-.03c-.01 0-.03.03-.04.01 0-.01 0-.03.02-.04.01 0 .04-.02.04.02v.01zm-5.39 3.98c.03 0 .04-.04.08-.04.02.03-.04.03-.03.06l-.04.03v-.02l-.01-.03zm.03-.17v-.01c-.03-.01-.03-.03-.02-.05.01-.02.03 0 .04 0 .02.01 0 .03 0 .04l-.02.02zm5.62 3.2v.02c-.01 0-.04.01-.06.04h-.01c-.01-.03 0-.04.02-.04l.04-.02zM11.1 21c0-.01.03-.03 0-.05 0-.01 0-.05-.03-.02h-.01l.01-.03c.06-.04.01-.05-.01-.07l-.04-.02c0-.03.02-.05 0-.07.02-.02.05-.02.06 0 .01.04.03.04.06.03l.03.01c.05.03.08.06.09.11v.08c0 .02-.03.06-.05.01v-.03h-.06c-.02.01-.02.03 0 .05v.04c-.02-.02-.04 0-.05 0-.03 0-.04-.02-.01-.04zm1.7-1.93h.05c.01.1.01.1.11.12 0 .01 0 .02-.02.02-.03-.02-.04 0-.04.03h-.07c.01-.02.05-.02.03-.05-.01-.01-.03.02-.04.03-.02 0-.02.03-.05.04 0-.01-.02-.03 0-.05.02-.02.02-.05 0-.07s.03-.04.03-.07zm-4.06 4.9.03-.01c.02-.01.04-.02.06 0s.01.04 0 .06c-.02.03-.03.05-.06.05-.02 0-.03.04-.05.02-.02-.01-.06 0-.05-.02 0-.03 0-.07.03-.08.01.01.03.03.04.02.02-.01-.02-.02 0-.04zm10-2.79.02-.01.04-.01c.02.02 0 .04 0 .06v.08l-.09.01c0-.03-.02-.04-.05-.02v-.02c.01-.01.04-.03.01-.06.06 0 .07 0 .07-.03zm-9.79 2.91.02.02c0 .04 0 .08.05.09.02 0 .04.03 0 .04-.03 0 .03.04-.01.04-.02 0-.04-.03-.05-.03-.08.04-.04-.04-.06-.06.04-.02.06-.04.02-.07l.03-.03zm5.08.71c-.03-.04-.04 0-.05 0-.01-.02-.05 0-.05-.03s.04-.01.03-.04c.02-.01.05 0 .05-.03.01-.04.05-.02.07-.03.04 0 .02.03.03.03v.02h.01c-.02.01-.03.02-.03.04-.03 0-.08-.05-.06.03zm-2.97-3.39c-.06 0-.09-.05-.14-.06v-.03h.03l.07.03c.02 0 .04.02.06.01.02.03 0 .04-.02.05zm-2.56 2.7c.03-.02.1-.01.12.03v.03c-.03-.01-.02.04-.05.02l-.05-.03c.01-.01.04-.02 0-.03l-.03-.02zm-.05-1.83-.01.03c-.01.01 0 .03-.02.03s-.03 0-.03-.02c-.02-.04-.02-.01-.03 0-.02-.02-.03-.04-.02-.07.02.02.04-.01.06-.01.04-.02.04.02.05.04zm.25 1.95a.05.05 0 0 0-.03-.03c-.02-.01 0-.02 0-.04s.03-.02.03-.01c.03.04.07.02.1.02.02.03-.05.01-.01.04 0 0-.02.02-.03.01-.02-.02-.04 0-.06 0zm-.2.11s.02.02 0 .03c-.02-.02-.07 0-.08-.04l.01-.05c.03 0 .02.02.03.03 0 0 .01.02.02.01.03-.02.02 0 .03.02zm.43-.28H8.9c0 .04-.02.04-.05.03v.02c-.03.01-.05 0-.05-.02.03 0 .02-.04.04-.05.03 0 .07-.03.08.02zm.93-2.39s.03 0 .04-.02c-.03 0-.04 0-.04.02-.05-.01 0-.05-.03-.07.03-.02.04 0 .06 0 .01.03.05.04.02.07-.02.02-.04.02-.06 0zm3.95 3.38c.02 0 .02-.07.02-.1 0 0 .01-.03.02 0s.04.06 0 .1v.02c-.02 0-.03.02-.05 0l.01-.01zm-.64-6.55c.01-.01.02.03.03 0 0 0 .03-.02.04 0s0 .03-.02.02v.06c-.03 0-.02-.01-.03-.02-.02-.02 0-.05-.02-.06zm.14 1.3v-.01c.02-.02.01-.03 0-.05v-.03c.03 0 .01.02.02.02h.01c.03 0 .05.02.05.04 0 .03-.03.01-.05.02h-.02zM8.3 22.29h-.03c-.02.01-.05.01-.03-.03 0-.02-.01-.02-.02-.03.03-.02.05 0 .06.02.03 0 .01.03.03.04zm.37 1.63c.02.02 0 .02 0 .03-.02.02-.03.03-.05.02-.02-.02 0-.04 0-.05.02-.03.04-.01.05 0zm5.98.66c.02.01 0 .04.02.05-.01.02-.03.02-.06.02-.02 0-.02 0 0-.02 0 0 .04 0 .01-.03v-.02h.03zm-5.97-.32-.02.03h-.03s0 .02-.02 0l-.01-.03c0-.01 0-.02.02-.01h.02c0-.06.03.01.03 0l.01.01zm4.22-5.3c-.01 0-.03 0-.03-.03l.02-.02.04-.01v.02c.01.02.02.04-.01.02l-.02.02zm5.87 1.94h.02c.01.02.02.05 0 .07-.03-.02-.03-.04-.02-.07zM8.11 24.63H8.1c.03-.02.05-.02.06 0v.02c0 .02-.03 0-.04 0v-.01zm1.79-2.84-.04-.02c0-.01 0-.03.01-.02s.04 0 .04.03v.02l-.02-.01zm-2.12 2.62.02.03s0 .02-.02.03c-.02-.01-.01-.02 0-.03 0-.01-.02-.02-.01-.03h.01z"/><path fill="#919191" style="fill:var(--color10,#919191)" d="M18.8 21.32h-.01v-.02h.03l-.03.02zm-7.53-.97c-.07 0-.07-.04-.08-.08v-.01c-.02 0-.04 0-.03-.03 0-.04.03-.05.07-.06-.03.05.02.05.03.08h.02c-.01.03.01.07-.02.08v.02zm1.45-1.33c-.02-.01 0-.03-.01-.05-.01-.03-.03 0-.04 0 0-.02 0-.04-.03-.04-.03-.02-.02-.04-.01-.07.02.01.04.03.06.01.03.01.02.07.05.05.04-.02 0-.05 0-.08 0-.01-.03-.04 0-.05.03 0 .04-.01.03.02l.01.03c.05.02.06.06.06.1 0 .02 0 .04.02.05v.04c-.02.02-.03 0-.04 0-.03-.02-.06-.03-.1-.01zm1.35 5.81.03-.06h.03l.02.01-.02.08c-.02 0-.05 0-.06-.03zm-.77-6.4c-.01-.02-.04-.01-.03-.03 0-.02.02-.01.03-.01.02 0 .02.02.02.04h-.02z"/><path style="fill:var(--color11,#000)" d="m23.2 22.4-6.94-9.8-.14-.04c-.37-.13-.78-.27-1.16-.34h-.02l-8.2 6.15c-.4-.08-.82-.15-1.24-.2l5.1-10.46-2.72-1.45-1.77-.06L0 19.9l1.45.53c.77.6 1.63 1.07 2.54 1.41l.95 1.32 2.11 2.9 3.07 4.2.02.03v-.01l1.22.33L23.2 22.4zm-6.98-9.74 6.86 9.68-1.26-.4-6.8-9.64c.36.07.74.2 1.08.32l.12.04zm-8.89 6.6-.02.06 1.37.52-4.01 2.83-.62-.86c1.1-.68 2.22-1.44 3.32-2.26l.02-.02-.02-.02a10.1 10.1 0 0 0-.36-.7v-.02h-.02l-.6-.09 1.33-.99 2.76.87-1.79 1.26.02-.05-1.38-.53zm3.21-.72-2.75-.87 1.88-1.42c.2.07 2 .64 2.76.96l-1.89 1.33zm1.95-1.37c-.7-.3-2.41-.85-2.76-.96l1.72-1.29c.14.05 2.03.68 2.8 1l-1.76 1.25zm1.83-1.29c-.72-.3-2.49-.9-2.81-1l1.68-1.26c.2.06 2.12.7 2.89 1.03l-1.76 1.23zm1.82-1.28c-.71-.3-2.54-.91-2.9-1.03l1.7-1.27 1.49 2.1-.3.2zm-9.46 3.82-.37.27-1-.12.17-.33c.4.04.8.1 1.2.18zm.57-5.88L4.7 9.5l.87-1.94 2.6 3.1-.93 1.88zm-.03.06-.86 1.73-2.48-2.97.8-1.8 2.54 3.04zm-.9 1.8-.86 1.75-2.43-2.9.82-1.83 2.48 2.97zm-.9 1.81-.9 1.85-2.38-2.8.86-1.94 2.43 2.9zm4.15-8.23.94-.22-5.26 10.8-.88-.07L9.57 8zm-.54.97-1.76-2.1 2.24 1.12-.48.98zm1.43-1.25-.91.22-3.28-1.65 1.6.05 2.59 1.38zM6.15 6.28l.98.5L9 9l-.8 1.6-2.6-3.1.55-1.22zM.08 19.86l2.03-4.54 2.37 2.8-.18.36c-.46-.03-.92-.05-1.39-.06a4 4 0 0 0-.5.03h-.02l-.01.02c-.31.62-.61 1.26-.9 1.9l-1.4-.51zm1.45.55c.29-.63.59-1.27.9-1.9l.48-.03c1.35.03 2.67.16 4.05.37.13.21.24.44.35.66-1.1.82-2.22 1.58-3.32 2.25v.02a9.61 9.61 0 0 1-2.46-1.37zm3.17 2.3 11.76-8.26 5.3 7.52-11.6 8.23-5.46-7.48zm5.52 7.52 11.6-8.22 1.26.4-11.73 8.13-1.13-.3z"/><path style="fill:var(--color11,#000)" d="M3.16 18.76c-.3-.13-.66 0-.8.3s.03.67.33.8a.6.6 0 0 0 .25.05.6.6 0 0 0 .54-.36.6.6 0 0 0-.32-.79zm-.44 1.04a.54.54 0 0 1-.3-.7.51.51 0 0 1 .26-.27L3 19.84c-.1.01-.2 0-.3-.04zm.7-.27a.52.52 0 0 1-.35.3l-.33-1.03a.55.55 0 0 1 .4.02c.27.12.4.44.28.7zm1.68.79a.64.64 0 0 0 .49.01.61.61 0 0 0 .34-.33.64.64 0 0 0-.34-.83.64.64 0 0 0-.84.32c-.06.15-.06.32 0 .48s.2.28.35.35zm.77-.34a.55.55 0 0 1-.3.3.57.57 0 0 1-.33.02l.23-1.1.1.03c.28.13.42.46.3.75zm-1.06-.46a.55.55 0 0 1 .52-.34h.08l-.23 1.1-.06-.02c-.14-.06-.25-.17-.3-.31s-.07-.3 0-.43zm8.12 7.44.05-.03-1.06-1.54 6.22-4.52-.04-.05-6.22 4.52-1.73-2.52 6.2-4.5-.03-.06-2.18 1.59-1.08-1.58-.05.04 1.08 1.57-3.98 2.89-1.15-1.67-.05.04 1.15 1.66-2.05 1.5.03.04 2.06-1.48 1.73 2.51-2.04 1.48.04.05 2.04-1.48 1.06 1.54zm-5.47-4.41a.37.37 0 0 0-.36.11.57.57 0 0 0-.13.35c-.01.14.02.27.04.37.03.12.08.26.18.34a.378.378 0 0 0 .45.01.54.54 0 0 0 .23-.39.75.75 0 0 0-.07-.45c-.08-.15-.18-.3-.34-.35zm.35.79a.48.48 0 0 1-.2.34.33.33 0 0 1-.38 0c-.09-.08-.13-.2-.16-.31-.02-.1-.05-.23-.04-.35s.05-.24.12-.32c.06-.06.15-.1.23-.1h.07c.13.04.22.18.3.32a.7.7 0 0 1 .06.41z"/><path style="fill:var(--color11,#000)" d="M8.15 23.45c.03.05.09.07.14.07h.06a.38.38 0 0 0 .16-.12.59.59 0 0 0 .17-.3V23c.17-.06.33-.1.5-.13l-.02-.07c-.16.04-.33.08-.5.14 0-.05-.02-.1-.03-.14l-.36-1.05-.06.01c.07.32.05.64-.03.95l.06.02c.06-.22.08-.44.07-.67l.26.76.04.14c-.16.07-.29.15-.39.25-.08.08-.1.17-.07.24zm.47-.42v.06a.54.54 0 0 1-.16.26.33.33 0 0 1-.13.1c-.04.02-.1 0-.12-.03-.03-.07.04-.14.06-.17.1-.09.2-.16.35-.23z"/><path fill="#ffe0c4" style="fill:var(--color12,#ffe0c4)" d="M34.86 2.07c.25-.11.5-.26.68-.47s.32-.48.32-.76a.83.83 0 0 0-.36-.71c-.22-.14-.52-.14-.74 0s-.35.4-.35.66c-.1-.2-.3-.34-.5-.4s-.44-.08-.66-.06a.7.7 0 0 0-.3.1c-.12.06-.19.2-.2.33s0 .28.06.4c.06.13.15.24.23.34-.1-.07-.25-.06-.36 0s-.19.17-.24.28c-.11.21-.16.45-.17.68 0 .2.02.4.11.56s.28.29.47.27c.1-.01.19-.06.26-.12s.14-.15.18-.23c.33-.24.7-.45 1.09-.6.16-.08.3-.2.48-.27z"/><path fill="#b15900" style="fill:var(--color13,#b15900)" d="M34.75 2.25c.06-.1.12-.2.15-.31s.02-.25-.06-.33c-.09-.1-.24-.12-.37-.08s-.23.12-.34.2c-.22.18-.45.36-.64.58-.09.1-.17.2-.2.34s-.01.27.08.37c.1.09.24.1.37.07s.23-.1.34-.18c.27-.2.51-.42.67-.66z"/><path style="fill:var(--color11,#000)" d="M33.6 3.15a.35.35 0 0 1-.16-.03c-.2-.1-.24-.37-.17-.56.07-.2.23-.33.37-.46l.37-.32c.1-.1.21-.19.34-.25.15-.07.3-.07.43 0 .12.06.22.23.16.38a1.9 1.9 0 0 1-.35.62c-.17.17-.37.31-.56.44a.84.84 0 0 1-.44.18zm.98-1.6a.51.51 0 0 0-.2.04c-.12.05-.23.14-.33.23l-.37.33c-.13.12-.29.26-.35.44-.06.16-.03.39.13.47.17.08.38-.03.54-.14.18-.13.38-.26.54-.44.16-.17.25-.38.34-.6.05-.11-.03-.25-.13-.3a.36.36 0 0 0-.17-.04z"/><path style="fill:var(--color11,#000)" d="M32.77 3.33a.47.47 0 0 1-.25-.07c-.14-.09-.23-.25-.27-.49-.05-.3-.01-.6.1-.88.07-.17.16-.3.27-.37.1-.07.21-.1.32-.09A.9.9 0 0 1 32.7 1c-.05-.22.02-.45.18-.57.14-.1.32-.12.49-.12.26 0 .45.03.62.1.17.06.3.17.4.3 0-.21.1-.41.26-.54.2-.16.45-.21.68-.14.28.09.5.38.54.7.03.29-.07.6-.28.86-.18.2-.41.38-.73.52-.02.01-.04 0-.04-.01s0-.04.01-.04c.31-.14.54-.31.71-.52.2-.24.3-.53.27-.8a.77.77 0 0 0-.5-.65.68.68 0 0 0-.62.13.7.7 0 0 0-.24.62c0 .02-.01.03-.03.04s-.03 0-.03-.02a.74.74 0 0 0-.43-.4c-.16-.06-.34-.09-.6-.09-.15 0-.32.01-.45.11s-.19.31-.15.5c.03.18.14.35.3.5.02.01.02.03.01.04s-.03.02-.04.01c-.13-.07-.28-.03-.38.04a.75.75 0 0 0-.25.34c-.1.26-.14.57-.1.85.03.15.1.35.25.45.11.07.27.08.41.01a.65.65 0 0 0 .31-.31c0-.02.03-.02.04-.02s.02.03.02.05a.71.71 0 0 1-.34.34.54.54 0 0 1-.22.05z"/><path fill="#fff" style="fill:var(--color14,#fff)" d="M14.31 12.7c-.58-.18-1.15-.4-1.7-.65-.35-.18-.7-.38-1-.63s-.58-.56-.75-.91c-.23-.35-.29-.8-.2-1.2s.29-.8.58-1.07a5.81 5.81 0 0 1 1.63-1.26c.52.08.99.43 1.22.9l17.7-1.35c.41.02.82.16 1.16.4s.62.58.8.97c.15.41.1.89-.09 1.29s-.48.74-.82 1.03a12.2 12.2 0 0 1-5.37 2.52 39.23 39.23 0 0 1-5.51.78 23.97 23.97 0 0 1-3.94-.11c-1.2-.13-2.41-.33-3.7-.72z"/><path fill="#ffc589" style="fill:var(--color15,#ffc589)" d="M11.63 9c-.24-.04-.47.1-.59.31s-.12.46-.05.69c.07.22.21.42.38.6s.35.3.51.46c.71.43 1.49.74 2.3.95a22.02 22.02 0 0 0 5.69.78h.07a23.7 23.7 0 0 0 5.75-.44 21.8 21.8 0 0 0 5.57-1.7 5.57 5.57 0 0 0 1.67-1.3c.02-.03.02-.06 0-.07-.02-.03-.05-.03-.08-.02a.42.42 0 0 0-.17.07c.05-.06.1-.13.12-.21s.01-.17-.03-.24-.1-.13-.18-.15c.12-.16.23-.33.31-.52s.12-.4.09-.6a.66.66 0 0 0-.33-.47c-.13-.07-.28-.08-.42-.05s-.27.1-.38.2c.14-.18.24-.4.3-.62.03-.11.05-.23.03-.35s-.08-.24-.18-.3a.45.45 0 0 0-.34-.05.54.54 0 0 0-.3.16c0-.16-.06-.33-.16-.46s-.27-.23-.43-.23c-.15 0-.3.06-.41.16s-.2.22-.28.35c.03-.18.03-.36-.02-.53s-.13-.33-.27-.45a.9.9 0 0 0-.55-.2c-.13 0-.27.02-.4.06a.42.42 0 0 0-.16.09c.1-.2.1-.44 0-.64s-.23-.37-.42-.48-.4-.19-.6-.22a1.35 1.35 0 0 0-1.02.18.35.35 0 0 0-.06-.17c-.22-.34-.55-.6-.93-.72s-.8-.12-1.16 0a.69.69 0 0 0-.73-.22c-.15-.46-.54-.83-1-.96s-.99 0-1.35.31a1.26 1.26 0 0 0-2.38-.08c-.14-.32-.49-.53-.83-.54s-.7.13-.96.37-.44.55-.56.89-.19.67-.25 1.02c-.12-.07-.25-.12-.38-.13s-.28.02-.39.1c-.1.1-.16.24-.1.37-.21-.26-.55-.4-.9-.39s-.65.2-.84.49a.79.79 0 0 0-.12.3c0 .1.03.2.06.3.08.27.2.55.41.72-.16-.14-.4-.2-.6-.16s-.42.16-.56.33c-.14.15-.23.34-.27.54s-.06.4-.03.61c-.02.16.01.32.09.46s.2.25.35.32c-.17.1-.3.23-.4.39-.1-.15-.22-.3-.37-.4s-.32-.18-.5-.17c-.22.02-.43.17-.54.38s-.11.45-.05.68c.06.22.19.42.32.6z"/><path fill="#ffe0c4" style="fill:var(--color12,#ffe0c4)" d="M19.29 11.63c.17-.13.33-.26.43-.44s.11-.42 0-.6c-.1-.14-.27-.22-.44-.21s-.34.09-.47.21c-.12.12-.2.28-.28.45-.04-.27-.23-.5-.46-.64s-.51-.19-.78-.18c-.12 0-.24 0-.36.05s-.23.1-.3.2a.4.4 0 0 0-.06.35c.04.1.1.17.19.22l.26.13c-.16.02-.32.06-.45.15s-.23.25-.22.41c.02.1.07.2.14.26s.17.12.26.16c.4.16.87.14 1.3.1.41-.21.87-.35 1.24-.62z"/><path fill="#fff2db" style="fill:var(--color16,#fff2db)" d="m32.94 10.1-.92 8.14-.55 4.96a3.63 3.63 0 0 1-1.16 2.13 8.9 8.9 0 0 1-3.8 2.1c-.68.18-1.36.3-2.05.37-.73.16-1.48.24-2.22.23-.55.04-1.1.02-1.64-.06a8.47 8.47 0 0 1-2.42-.53 8.97 8.97 0 0 1-2.27-1.16c-.24-.2-.48-.4-.68-.64s-.37-.52-.43-.83l-1.09-4.5-1.22-4.97-.86-3.44s-.14-.6-.17-.6c.95.7 2.04 1.19 3.16 1.44 2.62.7 5.37.93 8.07.67.91-.09 1.82-.2 2.74-.35a16.6 16.6 0 0 0 5.95-1.85l.07-.04a9.2 9.2 0 0 0 1.49-1.06z"/><path fill="#b15900" style="fill:var(--color13,#b15900)" d="M27.82 8.38c-.45.03-.87.31-1.08.7 0 .03-.02.05-.04.05-.03 0-.05-.02-.06-.05-.14-.25-.43-.4-.72-.38s-.54.23-.63.5a.71.71 0 0 0-.8.1c.07-.2.13-.4.1-.62s-.12-.41-.3-.52c.06-.4.4-.73.8-.78s.8.19.97.56c.16-.22.4-.36.67-.4s.54.06.75.23c0 .24.14.48.34.6z"/><path fill="#ffe0c4" style="fill:var(--color12,#ffe0c4)" d="M30.09 7.2c.23-.05.47-.11.68-.23s.4-.29.5-.5.13-.5.02-.71a.6.6 0 0 0-.6-.34c-.15.02-.3.12-.41.25s-.2.27-.27.41c-.03-.1-.13-.15-.23-.18-.2-.07-.41-.11-.63-.08s-.41.12-.56.28a.72.72 0 0 0-.16.62c-.13-.1-.31-.1-.47-.05s-.27.18-.35.33-.12.3-.14.47c-.02.21 0 .43.09.62s.27.35.48.38c.2.03.39-.06.52-.2s.21-.34.23-.53c.05.25.2.48.4.62s.47.2.71.15c.24-.05.47-.2.6-.42.08-.12.12-.25.13-.4s-.05-.27-.15-.37a.44.44 0 0 0-.4-.12z"/><path fill="#b15900" style="fill:var(--color13,#b15900)" d="M28.7 4.9c-.2.22-.37.34-.58.71-.03.02-.05-.02-.05-.02-.25-.43-.86-.55-1.27-.4s-.66.59-.63 1.03c-.01-.07-.11-.11-.18-.14s-.2-.03-.26-.02c-.35.02-.58.2-.79.49-.02.03-.04.06-.08.05-.03 0-.04-.04-.05-.07-.1-.32-.06-.67.03-.99.04-.15.1-.3.2-.43s.23-.23.39-.26c.15-.02.33.05.4.18-.04-.28.02-.59.17-.83s.41-.43.7-.49c.2-.14.45-.18.7-.18.24 0 .49.04.71.14s.42.27.54.5c.11.21.16.45.05.72z"/><path fill="#ffe0c4" style="fill:var(--color12,#ffe0c4)" d="M23.84 4.7a1.39 1.39 0 0 0 .96-.5.5.5 0 0 0 .06-.42.54.54 0 0 0-.21-.27.8.8 0 0 0-.8-.06c.18-.48.37-.5.66-.62-.24-.22-.62-.27-.91-.12s-.47.5-.43.83c-.2-.1-.42-.16-.64-.17s-.45.05-.62.2a.64.64 0 0 0-.22.6c.02.12.1.24.2.32s.24.11.38.1c-.13.11-.24.25-.3.4s-.05.35.03.5c.09.14.25.23.42.26s.34 0 .5-.05c.23-.07.46-.18.63-.36s.27-.4.29-.64z"/><path fill="#b15900" style="fill:var(--color13,#b15900)" d="M21.43 2c-.47.35-.77.95-.77 1.54a.5.5 0 0 1-.21-.07c-.15-.1-.29-.2-.44-.28-.24-.12-.52-.22-.78-.15-.3.07-.51.34-.56.64s.04.61.21.87c-.28.11-.5.35-.61.65 0-.18.01-.36-.02-.53s-.1-.34-.25-.45c-.18-.15-.44-.16-.64-.05s-.34.34-.35.6c-.05-.21-.1-.42-.19-.62s-.2-.37-.38-.5c.03-.37.27-.71.6-.87s.74-.13 1.05.07c.2-.37.6-.64 1.01-.72s.87.05 1.2.34c.1-.21.27-.38.48-.47s.45-.1.65 0z"/><path fill="#ffe0c4" style="fill:var(--color12,#ffe0c4)" d="M20.7 9.02c.2.2.49.26.76.21s.5-.2.7-.38c.16-.14.29-.3.35-.5s.03-.42-.11-.57c-.1-.12-.27-.17-.43-.18s-.31.02-.47.08c.15-.19.27-.4.35-.64.03-.08.06-.17.05-.27s-.03-.18-.1-.25-.18-.09-.28-.07-.2.05-.28.1a1.7 1.7 0 0 0-.74.97c-.14-.27-.46-.4-.76-.38s-.57.19-.78.4c-.12.12-.22.27-.23.44-.01.18.09.36.23.46s.34.13.51.12c.18-.02.35-.08.51-.14-.12.1-.22.23-.27.37s-.04.32.04.46c.07.14.22.23.38.23.13 0 .25-.07.34-.16s.17-.2.23-.3z"/><path fill="#b15900" style="fill:var(--color13,#b15900)" d="M18.95 11.96c.1-.04.21-.08.3-.17s.11-.21.05-.31c-.04-.07-.13-.1-.2-.13-.25-.07-.51-.05-.75.04s-.43.28-.54.5c-.03.07-.05.13-.05.2s.02.13.07.18c.07.05.16.04.24.03.33-.05.6-.23.88-.34zm-6.01-2.4c.1-.1.18-.24.18-.39s-.1-.3-.24-.32c-.08 0-.16.03-.23.08s-.1.13-.15.2c-.14.19-.28.4-.31.63-.01.09 0 .2.07.23.06.03.12.01.18 0 .23-.1.39-.3.5-.43z"/><path fill="#ffe0c4" style="fill:var(--color12,#ffe0c4)" d="M14.45 7.88c-.21-.03-.42.15-.46.36s.07.43.25.56.4.16.6.15c.22-.01.42-.08.63-.14-.02.11.04.22.12.3s.2.11.3.14c.35.07.72-.02.99-.25.12-.1.3-.26.35-.42s-.02-.31-.1-.46c-.1-.17-.3-.26-.48-.27s-.38.06-.57.17c.21-.17.38-.4.47-.65.05-.15.08-.32 0-.45-.07-.12-.2-.18-.33-.17s-.25.06-.34.15-.16.21-.21.34c-.02-.11-.04-.23-.1-.33s-.14-.2-.26-.21c-.1-.02-.22.03-.32.09-.36.24-.58.68-.54 1.1zm10.45 3.09c.28.01.55-.02.81-.1s.5-.24.68-.45a.46.46 0 0 0 .13-.26.38.38 0 0 0-.13-.3c-.15-.13-.38-.18-.58-.15s-.4.12-.58.22c.06-.09.12-.19.15-.3s.01-.23-.05-.32c-.09-.15-.27-.2-.44-.18s-.32.11-.45.2c.06-.18.13-.37.14-.56s-.07-.4-.23-.51c-.18-.13-.43-.1-.6.04s-.3.32-.37.53c-.1.27-.13.55-.1.85-.06-.2-.26-.36-.47-.38s-.42.08-.55.24c-.14.17-.19.39-.16.6s.12.41.26.58c-.09.11-.19.22-.25.35s-.09.28-.04.42c.05.12.17.22.3.27s.27.04.4.03c.26-.03.5-.13.72-.28.22-.17.4-.4.66-.5.24-.12.5-.06.75-.04z"/><path fill="#b15900" style="fill:var(--color13,#b15900)" d="M31.91 10.22c.03-.1-.02-.23-.11-.3s-.21-.1-.33-.1-.22.05-.33.1c-.33.13-.65.29-.93.5-.08.07-.17.15-.2.25-.03.12.02.25.08.37 0 .02.02.06.06.06h.06a7.9 7.9 0 0 0 1.7-.88zM17.06 8.04c.07-.06.14-.12.23-.15s.18-.05.27-.01c.07.03.12.09.16.15s.07.14.1.22c.07-.1.14-.2.24-.28s.2-.15.33-.16c.12-.01.26.03.34.1a.95.95 0 0 1 .48-.57c-.18-.01-.34-.13-.45-.27s-.17-.32-.22-.49c-.11.17-.32.27-.53.25s-.39-.17-.46-.35c-.1.17-.26.3-.44.38s-.38.08-.56.02c.08.17.06.38-.02.55s-.2.32-.31.48a.82.82 0 0 1 .84.13z"/><path fill="#fff" style="fill:var(--color14,#fff)" d="M31.48 23.22c.15.58.04 1.21-.22 1.75s-.68.99-1.14 1.38a9.99 9.99 0 0 1-3.52 1.8c-1.24.33-2.51.52-3.8.56-1.41.08-2.85-.06-4.23-.41a6.92 6.92 0 0 1-2.88-1.39c-.4-.34-.73-.78-.95-1.26-.07-.14-.12-.3-.13-.45s.07-.32.19-.4c.13.44.4.83.73 1.14s.71.56 1.1.78c.75.4 1.54.74 2.35 1 1.4.33 2.87.42 4.3.24a19.4 19.4 0 0 0 3.83-.71 9.04 9.04 0 0 0 3.38-2.1c.48-.5.82-1.12 1-1.93z"/><path fill="#b15900" style="fill:var(--color13,#b15900)" d="M24.35 10.22c-.34.07-.68.2-1 .35-.08.04-.17.08-.2.16-.06.1-.03.22-.04.34 0 .07-.03.15-.03.23s.04.16.11.19h.13l.79-.16c.16-.03.33-.06.48-.13s.28-.19.34-.34c.08-.2.06-.43-.1-.56a.64.64 0 0 0-.48-.08z"/><path style="fill:var(--color11,#000)" d="M33.85 8.13c-.07-.38-.3-.76-.66-1.06a2.4 2.4 0 0 0-.98-.55.6.6 0 0 0-.04-.4.46.46 0 0 0-.41-.22.6.6 0 0 0-.37.15c0-.1-.03-.2-.08-.3a.63.63 0 0 0-.65-.35.73.73 0 0 0-.42.26l-.12.17c.05-.33-.07-.68-.3-.9a.95.95 0 0 0-1.08-.1.9.9 0 0 0-.21-.89 1.51 1.51 0 0 0-.9-.41 1.51 1.51 0 0 0-.75.06.94.94 0 0 0-.2.1 1.72 1.72 0 0 0-1.04-.88 1.84 1.84 0 0 0-1.13 0c-.16-.18-.46-.26-.72-.2-.14-.45-.51-.8-1-.95-.45-.14-.99-.04-1.36.27a1.3 1.3 0 0 0-1.16-.85c-.5-.02-1 .3-1.22.75-.24-.45-.8-.58-1.21-.47-.43.11-.81.45-1.06.92-.22.43-.3.9-.37 1.34a.85.85 0 0 0-.27-.12.57.57 0 0 0-.48.1.4.4 0 0 0-.15.3.96.96 0 0 0-.49-.3 1.16 1.16 0 0 0-.7.05 1 1 0 0 0-.57.5c-.1.23-.08.52.06.79.06.12.14.23.23.34a.84.84 0 0 0-.52-.06c-.28.06-.53.27-.68.55-.13.24-.2.53-.18.86 0 .13.02.25.04.35-.19.1-.37.22-.53.36a.73.73 0 0 0-.45 0c-.33.1-.5.47-.5.78v.04c-.4.37-.65.93-.64 1.49a2.42 2.42 0 0 0 .87 1.66c.1.38 3 12.07 3.32 13.5-.16.1-.19.26-.19.4 0 .17.07.33.13.47a4.47 4.47 0 0 0 2.12 2.04c.84.42 1.74.65 2.83.87a18.34 18.34 0 0 0 5.09-.02 11.1 11.1 0 0 0 5.07-1.94c.28-.22 1.23-1 1.59-1.89.15-.38.23-1.05.1-1.6l1.45-13.02a8 8 0 0 0 .3-.28c.47-.54.68-1.16.59-1.7zM12.72 7.04a1 1 0 0 0 .05.12l.03.06-.35.25-.01.01a1.54 1.54 0 0 0-.2-.12c.15-.12.31-.23.48-.32zm.02.8c-.07-.11-.14-.22-.25-.32l.34-.24c.07.1.16.18.26.23-.14.1-.26.2-.35.33zm-1-.45a.7.7 0 0 1 .59.1c.18.1.28.26.38.4a1.06 1.06 0 0 0-.11.8c0 .02.01.03.03.03l.03-.04a1 1 0 0 1 .05-.65c.09-.2.25-.37.46-.5l.02-.03-.02-.02a.65.65 0 0 1-.35-.35 1.3 1.3 0 0 1-.1-.5c0-.32.05-.6.17-.83a1 1 0 0 1 .64-.52c.23-.05.48.02.66.16l.11.12a.03.03 0 0 0 .05-.05 2.03 2.03 0 0 1-.48-.6.89.89 0 0 1-.06-.73.93.93 0 0 1 .54-.47c.22-.09.45-.1.66-.05.22.06.42.2.54.4 0 .02.03.02.04.01s.02-.03.01-.04c-.06-.12-.02-.3.1-.39.1-.08.26-.11.42-.08.24.06.46.24.6.5.14.24.2.53.26.78 0 .01.02.03.03.02s.03-.01.03-.03a.68.68 0 0 1 .25-.58.57.57 0 0 1 .61-.05c.15.08.27.25.31.46.04.19.02.39 0 .58l.03.03.04-.01c.11-.27.24-.45.4-.57a.68.68 0 0 1 .21-.1l.03.02.02-.01v-.02c.14-.02.28 0 .39.06.13.1.22.26.25.45.02.19-.01.37-.05.55 0 .02.01.03.03.04s.03-.01.04-.03c.03-.18.07-.37.04-.57a.68.68 0 0 0-.28-.49.57.57 0 0 0-.44-.07c-.15-.19-.24-.41-.24-.64 0-.25.1-.5.27-.65a.68.68 0 0 1 .67-.14c.02 0 .03 0 .04-.02s0-.04-.02-.04a.75.75 0 0 0-.73.15.92.92 0 0 0-.3.7c.01.23.1.46.24.66a.76.76 0 0 0-.2.1c-.14.1-.25.24-.36.43.01-.14.01-.28-.02-.43a.74.74 0 0 0-.34-.5.63.63 0 0 0-.67.06.72.72 0 0 0-.26.42 2.3 2.3 0 0 0-.22-.6 1.2 1.2 0 0 0-.3-.36c.05-.45.14-.92.36-1.35.24-.45.6-.78 1.02-.89.4-.1.96.03 1.17.5l.03.01s.02 0 .03-.02c.19-.46.68-.79 1.18-.77.5.02.97.38 1.11.85l.03.02h.02c.37-.32.9-.43 1.35-.3.47.15.81.48.95.91a.68.68 0 0 0-.14.06.93.93 0 0 0-.47.81 1.5 1.5 0 0 0-.63-.15.92.92 0 0 0-.65.25.67.67 0 0 0-.17.67c.07.21.28.36.5.37a.93.93 0 0 0-.25.38c-.06.2-.04.4.07.55.09.12.24.21.42.24h.12c.1 0 .22-.01.35-.05.3-.08.53-.2.7-.38.2-.22.3-.5.25-.76 0-.01-.02-.03-.03-.02s-.03.02-.03.03c.04.24-.05.5-.24.7-.16.17-.38.3-.66.37a1.1 1.1 0 0 1-.45.04.56.56 0 0 1-.38-.2.56.56 0 0 1-.06-.5.9.9 0 0 1 .3-.4v-.05c0-.02-.01-.02-.02-.01a.5.5 0 0 1-.53-.33.6.6 0 0 1 .16-.6.85.85 0 0 1 .6-.23c.2 0 .41.05.65.16a.03.03 0 0 0 .04-.03.88.88 0 0 1 .44-.8c.26-.15.64-.1.83.1l-.24.11c-.02 0-.02.03-.02.04s.03.03.05.02c.41-.24.93-.29 1.39-.14s.8.44 1 .86a.8.8 0 0 0-.27.38c-.01.02 0 .03.02.04s.03 0 .03-.02a.81.81 0 0 1 .5-.48c.2-.08.43-.1.7-.06.26.04.62.13.87.4.24.25.3.63.17.9v.05h.04a.88.88 0 0 1 1.09.05c.28.25.37.73.2 1.1 0 .02 0 .03.02.04s.03 0 .04-.01c.07-.14.14-.29.25-.42a.66.66 0 0 1 .38-.24c.23-.04.47.1.58.32.1.2.1.47-.02.7-.13.25-.36.4-.52.49-.18.09-.37.15-.56.2l-.05.01a.36.36 0 0 0-.07.03c-.02 0-.03.02-.02.04s.02.02.04.02l.07-.03c.16-.02.34.08.41.24.08.16.06.39-.05.58a.92.92 0 0 1-1 .43.93.93 0 0 1-.67-.83c0-.02-.01-.03-.03-.03s-.03 0-.03.02a1 1 0 0 1-.2.58.58.58 0 0 1-.55.21.59.59 0 0 1-.38-.29c-.08-.13-.12-.3-.13-.49 0-.19.02-.53.25-.78.17-.19.5-.28.74-.12l.04-.01V6.7c-.27-.17-.63-.07-.83.14-.18.2-.27.49-.26.82 0 .2.05.38.14.52.1.17.25.3.42.33.2.04.44-.06.6-.24.1-.12.16-.27.2-.4.08.32.35.6.68.68a.99.99 0 0 0 1.06-.46.7.7 0 0 0 .06-.64.49.49 0 0 0-.3-.25c.15-.05.3-.1.45-.17.17-.09.4-.25.55-.52a.9.9 0 0 0 .1-.36c.1-.12.24-.18.37-.19a.4.4 0 0 1 .35.19c.06.1.07.23.03.4-.06.33-.23.65-.49.93v.04c0 .01.03.02.05 0a.5.5 0 0 0 .05-.05c.09-.1.26-.28.4-.33.2-.07.4-.04.56.07.22.17.28.48.23.73-.05.26-.2.5-.38.75v.03l.02.02c.08.01.15.08.17.16.03.07.02.16-.01.25l-.07.11a.71.71 0 0 0-.06.11c0 .02 0 .04.02.04h.04c.04-.06.1-.1.16-.12.03-.01.06-.01.07 0v.05a.11.11 0 0 1-.06.04c-.96 1.13-2.38 1.65-3.64 2.06a27.89 27.89 0 0 1-13.18.95c-2.27-.39-3.8-.98-4.56-1.75-.14-.15-.32-.35-.42-.59s-.1-.5 0-.7a.6.6 0 0 1 .58-.33c.01 0 .02 0 .03-.02s0-.02 0-.03a1.4 1.4 0 0 1-.36-.85c0-.28.15-.62.45-.72zm20.34-.43.23.08a.76.76 0 0 0-.18.04.62.62 0 0 0-.17.1l.12-.22zM14.35 22.79a1643.35 1643.35 0 0 0-2.82-11.41c.25.21.56.4.92.6l3.49 14.27c-.59-.43-.96-.89-1.08-1.31a288.6 288.6 0 0 0-.51-2.15zm14.12 3.81c-.34.19-.69.35-1.05.5l.63-14.51.13-.04c.47-.14.93-.28 1.36-.45l-1.07 14.5zm1.13-14.52c.66-.26 1.28-.55 1.84-.88L30.1 25.46a8.13 8.13 0 0 1-1.56 1.1l1.06-14.48zm-2.24 15.04c-.46.18-.94.32-1.42.42l.04-14.51c.68-.12 1.35-.26 2-.43l-.62 14.52zm-1.48.44c-.26.05-.53.1-.8.13l-.35.06-.44-14.48c.54-.06 1.09-.14 1.63-.23l-.04 14.52zm-1.65-14.28.44 14.48c-.48.08-.94.14-1.39.19l-.93-14.46h.13l1.75-.2zm-1.94.22.93 14.45c-.51.05-1 .07-1.48.07L20.5 13.55h.17c.55 0 1.09-.02 1.62-.05zm-1.85.05 1.24 14.47c-.54 0-1.05-.04-1.54-.11l-1.89-14.48c.73.07 1.46.11 2.19.12zm-2.25-.12 1.88 14.47a10.27 10.27 0 0 1-1.25-.27L16.54 13.2a23.28 23.28 0 0 0 1.65.22zm-1.72-.23 2.28 14.4c-.43-.12-.87-.29-1.29-.48l-2.99-14.38c.63.18 1.3.33 2 .45zm-2.06-.48 2.98 14.37a10.11 10.11 0 0 1-1.37-.78L12.52 12l.27.12c.49.22 1.03.41 1.62.59zm16.94 12a5.2 5.2 0 0 1-1.57 1.86c-2.63 2.01-7.08 2.42-10.1 1.95a10.99 10.99 0 0 1-2.82-.87 4.41 4.41 0 0 1-2.1-2.01 1.1 1.1 0 0 1-.12-.45c0-.16.05-.26.15-.33a.96.96 0 0 1 .01.09c.24.85 1.38 1.65 2.61 2.2l.02.02a11.06 11.06 0 0 0 2.19.7c.7.14 1.43.2 2.2.2 1.01 0 2.1-.1 3.27-.33a9.5 9.5 0 0 0 4.72-1.95c.47-.38.82-.73 1.09-1.1.31-.43.5-.9.57-1.36.08.5 0 1.05-.12 1.38zm.07-1.47a3 3 0 0 1-.57 1.41c-.18.26-.4.5-.68.75l1.34-14.23v-.02a10 10 0 0 0 1.37-.99l-1.46 13.08zm-3.25-10.77c-1.86.52-3.81.73-5.7.94-.65.05-1.33.07-2 .07a20.43 20.43 0 0 1-7.65-1.42 4.73 4.73 0 0 1-1.42-.9c-.46-.44-.74-1-.76-1.53 0-.52.21-1.04.6-1.4.03.23.13.47.32.7a.67.67 0 0 0-.58.38c-.1.21-.1.49 0 .75.1.25.29.46.43.61.77.78 2.32 1.38 4.6 1.76a27.82 27.82 0 0 0 13.2-.95c1.27-.4 2.7-.93 3.66-2.06a.2.2 0 0 0 .07-.05c.03-.04.04-.09.02-.12-.03-.05-.1-.05-.15-.04a.33.33 0 0 0-.06.02.97.97 0 0 0 .04-.07c.04-.1.05-.2.02-.3a.3.3 0 0 0-.17-.18 2 2 0 0 0 .36-.75.93.93 0 0 0-.05-.5c.08.07.14.14.17.18.19.24.28.55.26.81 0 .02 0 .04.02.04s.04-.01.04-.03c.03-.28-.07-.6-.27-.86-.07-.09-.2-.2-.3-.3a.6.6 0 0 0-.37-.23l-.4-.15c.04-.1.08-.21.1-.32.4.11.67.3.95.53.34.3.57.66.63 1.03.1.52-.11 1.12-.57 1.65a11.76 11.76 0 0 1-5.05 2.7z"/><path style="fill:var(--color11,#000)" d="M33.34 8.59c-.02 0-.03 0-.04.02a1 1 0 0 1-.17.38v.04h.05c.09-.12.15-.26.18-.4 0-.02 0-.04-.02-.04zm-10.98 2.13h.05c.02 0 0-.03 0-.04a1.06 1.06 0 0 1-.27-.57.78.78 0 0 1 .17-.58.6.6 0 0 1 .54-.22c.2.04.38.2.4.4l.04.03c.01 0 .03-.02.03-.04-.02-.3 0-.55.06-.77.07-.25.22-.48.4-.62.13-.1.26-.15.38-.13.22.02.36.25.39.46.02.22-.05.45-.12.66l.01.03h.04c.16-.12.32-.19.46-.2.16 0 .35.07.41.23.04.1.03.2-.01.32-.04.1-.1.2-.17.29V10h.04a1 1 0 0 1 .94-.25c.18.04.36.18.36.36 0 .1-.07.21-.2.33-.43.37-1.04.54-1.6.44-.02 0-.03 0-.04.03s.01.03.03.03a2 2 0 0 0 1.66-.46c.08-.08.2-.2.21-.37 0-.21-.2-.37-.4-.42-.28-.08-.6-.02-.84.13a.89.89 0 0 0 .07-.13.5.5 0 0 0 0-.36c-.06-.17-.25-.28-.46-.27a.85.85 0 0 0-.42.16c.06-.19.12-.4.1-.6-.04-.23-.2-.48-.45-.52-.17-.02-.33.07-.43.15-.2.15-.34.39-.42.66-.05.17-.08.37-.07.6a.58.58 0 0 0-.4-.27.66.66 0 0 0-.6.24c-.13.16-.2.4-.17.63.03.21.12.42.28.6zM19.25 8.6c.22.02.42-.03.6-.1-.13.14-.2.3-.22.46-.02.24.14.52.4.56l.06.01c.15 0 .3-.07.41-.2.12-.12.19-.27.27-.44 0-.01 0-.03-.02-.04s-.03 0-.04.02c-.07.16-.14.3-.25.42-.12.13-.29.2-.43.17-.22-.04-.35-.29-.33-.5a.8.8 0 0 1 .35-.55v-.04l-.04-.02c-.2.1-.47.22-.75.18-.23-.03-.49-.2-.51-.46-.03-.23.13-.43.27-.56.17-.15.44-.34.76-.36.3 0 .58.15.69.39 0 0 .02.02.03.01l.03-.02c.09-.4.38-.75.78-.97.09-.04.31-.14.45-.03.13.11.1.33.06.45-.13.45-.44.86-.84 1.1-.02.01-.02.03-.01.05s.02.02.04 0A2 2 0 0 0 21.88 7c.04-.13.08-.37-.08-.5-.17-.15-.42-.04-.52.02-.4.2-.68.55-.8.93a.8.8 0 0 0-.7-.35 1.3 1.3 0 0 0-.8.37c-.15.14-.32.36-.3.62.03.3.32.48.57.51zm-2.52 1.73c-.14.1-.26.3-.2.5.06.17.22.27.37.33a.82.82 0 0 0-.35.12c-.16.12-.25.3-.23.48.03.13.12.26.27.34.23.14.5.17.74.19a4.13 4.13 0 0 0 .52 0c.2-.02.36-.08.49-.18v-.05h-.04a.86.86 0 0 1-.46.17c-.16.02-.34 0-.5 0-.24-.03-.5-.05-.72-.18a.468.468 0 0 1-.23-.3c-.03-.17.08-.33.2-.41a.9.9 0 0 1 .47-.14c.01 0 .03 0 .03-.02s-.01-.03-.02-.04c-.18-.04-.42-.13-.48-.33-.05-.16.05-.34.18-.43a.87.87 0 0 1 .5-.14c.3 0 .58.06.79.18.24.15.41.4.44.65 0 .02 0 .03.02.03s.03 0 .04-.02c.05-.17.14-.33.25-.45a.7.7 0 0 1 .45-.22c.18-.02.36.07.44.2.1.16.08.38-.03.58-.11.18-.28.3-.45.44v.04c0 .01.03.02.04 0 .16-.12.35-.26.46-.45.13-.21.14-.46.03-.64a.54.54 0 0 0-.49-.24.77.77 0 0 0-.5.25c-.09.1-.17.22-.22.36a.99.99 0 0 0-.45-.58 1.5 1.5 0 0 0-.83-.19c-.23 0-.4.05-.53.15zm-2.3-2.41c.02 0 .03-.02.03-.04a.87.87 0 0 1 .08-.5c.07-.13.16-.26.3-.42.1-.1.23-.23.39-.23.12 0 .25.09.31.22.07.14.08.3.08.42 0 .02.01.03.03.03s.03-.01.03-.03c0-.23.15-.45.37-.55.12-.05.29-.07.4.03.08.08.1.2.1.27a.9.9 0 0 1-.15.5c-.1.15-.22.28-.34.4l-.02.02v.04h.05v-.01c.14-.13.33-.2.52-.2.19.02.37.12.48.27.09.1.12.23.11.35-.02.23-.22.4-.4.51a.03.03 0 0 0 0 .05h.04c.17-.11.4-.3.43-.56a.58.58 0 0 0-.12-.39.73.73 0 0 0-.86-.23l.16-.21a.94.94 0 0 0 .17-.54.44.44 0 0 0-.13-.32c-.14-.12-.34-.1-.47-.04a.69.69 0 0 0-.35.38.74.74 0 0 0-.07-.21c-.08-.16-.22-.26-.37-.26-.18 0-.33.13-.43.25-.15.16-.25.3-.31.44a.93.93 0 0 0-.1.53c0 .02.02.03.04.03zM38.84 20l-1.08 3.47-1.94 6.3-.37 1.2c-.13.16-.29.3-.46.42s-.36.21-.55.3c-.32.12-.66.2-1 .25a11.15 11.15 0 0 1-3.08-.28 8.73 8.73 0 0 1-2.14-.69c-.63-.3-1.2-.72-1.65-1.24-.2-.21-.36-.46-.46-.73-.02-.04-.04-.1-.02-.13l.4-3.1s1.12-8.56 1.19-8.63c1.79.73 3.58 1.46 5.45 1.99s3.8.85 5.71.87z"/><path style="fill:var(--color11,#000)" d="M38.84 20c-1.46 0-2.92-.2-4.35-.52a775.3 775.3 0 0 1-1.78 9.49c-.25 1.12-3.9 1.9-5.78 1.07l-.11-.04c.4.4.88.73 1.4.97.68.32 1.4.56 2.13.7a11.25 11.25 0 0 0 3.08.27c.34-.05.68-.13 1-.25.2-.09.38-.18.56-.3s.33-.26.45-.42l.37-1.19 1.95-6.31L38.83 20z"/><path fill="#f87719" style="fill:var(--color17,#f87719)" d="M29.51 21.15c.48-.6.52-1.54.25-1.76s-.95-.55-1.38-.48c-.64.1-.77 2.81-.48 3 .27.17.38-.3.67-.44.41-.2.7-.02.94-.32z"/><path fill="#a3a7b3" style="fill:var(--color18,#a3a7b3)" d="M39.85 18.19c-.08.25-.48 1.52-.5 1.52-.3.21-.65.36-1 .45-.27.06-.48.12-.8.15l-.77.06a15.94 15.94 0 0 1-4.13-.64c-.98-.24-1.93-.57-2.85-.97a6.64 6.64 0 0 1-2-1.31c-.23-.26-.4-.56-.5-.88l.3-1.57c.02.16.06.32.16.44a13.15 13.15 0 0 0 4.27 2.48c2.49.92 5.31 1.21 7.82.27z"/><path fill="#8a797d" style="fill:var(--color19,#8a797d)" d="M37.94 19.1c.02.39-.04.82-.2 1.18-.65.12-1.32.08-1.99.05l-.57-.03c.14-.39.23-.8.27-1.2.44.03.88.06 1.3.07.41.02.81-.04 1.19-.08z"/><path fill="#f5f6ff" style="fill:var(--color20,#f5f6ff)" d="M39.52 16.84a6.25 6.25 0 0 0-1.75-1.23c-.94-.49-1.93-.86-2.97-1.11a15 15 0 0 0-3.3-.65 9.4 9.4 0 0 0-2.42.04c-.21.04-.43.07-.65.14s-.4.17-.56.33a.8.8 0 0 0-.24.63c.02.48.26.93.6 1.29s.74.62 1.17.85c1.02.57 2.12 1.02 3.25 1.32 1.5.53 3.12.77 4.7.7.43-.04.86-.08 1.27-.2s.8-.3 1.09-.63c.21-.18.28-.5.22-.77s-.22-.52-.4-.71z"/><path fill="#d5d6dc" style="fill:var(--color21,#d5d6dc)" d="M38.79 17.94c-.34.15-.7.23-1.07.26s-.73.04-1.1.02a17.46 17.46 0 0 1-7-1.96c-.24-.15-.47-.3-.68-.48s-.39-.4-.48-.65h.01c.37-.4.95-.54 1.5-.6 1.86-.2 3.72.29 5.5.91.6.18 1.2.36 1.76.63s1.1.61 1.5 1.08c.1.13.2.27.22.43s-.07.35-.17.36z"/><path fill="#a3a7b3" style="fill:var(--color18,#a3a7b3)" d="M39 17.74c.1-.08.13-.21.1-.33s-.08-.23-.16-.32c-.19-.27-.44-.48-.72-.66s-.57-.32-.87-.47c-.52-.24-1.04-.46-1.58-.66-.6-.23-1.24-.34-1.82-.57l-1.98-.32c-.5-.06-1-.11-1.5-.11s-1 .04-1.47.2c-.18.05-.35.15-.45.3s-.12.36 0 .5c.07-.11.17-.2.29-.26s.24-.08.37-.11c.6-.12 1.22-.14 1.84-.12.89.06 1.77.2 2.65.4.75.19 1.49.4 2.23.66.76.25 1.48.6 2.15 1.06.31.18.57.45.75.77.04.06.07.13.05.2.04-.06.09-.13.13-.16z"/><path fill="#211e17" style="fill:var(--color22,#211e17)" d="M33.15 16.06c-.06-.03-.14-.04-.21-.02s-.13.09-.13.16c0 .05.03.1.07.14s.09.06.13.08a5.38 5.38 0 0 0 1.34.34l.15-.03a.16.16 0 0 0 .1-.12c.01-.06-.02-.12-.07-.16s-.12-.07-.18-.08c-.4-.13-.85-.16-1.2-.31z"/><path fill="#fff8e6" style="fill:var(--color23,#fff8e6)" d="m38.8 10.8-2.24-.28c-.19-.04-.39-.01-.56.07s-.31.23-.4.4l-.16.79-1.1 4.98a6.43 6.43 0 0 1-1.3-.32l.5-2.07.6-2.76s.21-.91.23-.9a.9.9 0 0 0 .4-.84.9.9 0 0 0 .7-.5.74.74 0 0 0 .88-.15l2.66.37c.1.05.17.13.21.23.1.18.1.4.03.58s-.25.34-.45.4z"/><path fill="#dd4e10" style="fill:var(--color24,#dd4e10)" d="M35.74 25.95c.14-.38.24-.77.33-1.16.04-.18.07-.37.05-.56s-.1-.39-.27-.5c-.18-.12-.43-.1-.63-.01-.18.09-.32.23-.44.4a1 1 0 0 0 .15-.83.8.8 0 0 0-.64-.56.8.8 0 0 0-.4.06l-.78 4.12c.13.05.27.06.4.03.21-.05.38-.2.5-.4s.16-.39.21-.6c.04.21.04.44.13.64s.27.37.49.38c.17 0 .33-.09.45-.2.22-.22.35-.52.45-.81z"/><path fill="#070707" style="fill:var(--color25,#070707)" d="M39.85 17.24c-.43-.78-1.97-1.92-4.99-2.77l.75-3.4a.79.79 0 0 1 .31-.4.98.98 0 0 1 .1-.05.84.84 0 0 1 .39-.08 104.98 104.98 0 0 1 2.41.27c.3-.1.46-.28.5-.55a.72.72 0 0 0-.25-.7l-.14-.03c-.08 0-.18-.02-.31-.04l-.93-.12-1.32-.18a.03.03 0 0 0-.04-.02.03.03 0 0 0-.02.03.69.69 0 0 1-.84.13h-.04c-.02.01-.02.03-.01.04a.73.73 0 0 1-.65.44c-.02 0-.02 0-.03.02v.02c.01.15-.01.32-.07.46a.8.8 0 0 1-.32.37l-.02.02v.03l-.01.04-.04.18c-.04.15-.1.38-.15.64l-.45 1.96-.13.59c-2-.43-3.35-.42-4.13-.34-.99.11-1.63.4-1.76.78l-.05.2-.19 1-.14.8v.02a1.89 1.89 0 0 0 .34.68l-1.57 11.63c0 .03.02.6 1.36 1.63 1.22.93 3.87 1.46 5.46 1.46.2 0 .37-.01.53-.03 1.49-.15 2.07-.99 2.07-1L38.88 20a2.54 2.54 0 0 0 .53-.3l.28-.87.28-.87.01-.02c.06-.22.02-.46-.12-.71zm-.83-7.62c.19.14.28.39.24.63-.04.25-.18.4-.45.5l-1.19-.14-1.2-.13h-.07c.17-.39.18-.83.04-1.23l2.63.36zm-3.09-.15c.15-.02.3-.1.4-.2.14.4.12.83-.05 1.22a.9.9 0 0 0-.25.06c0-.2-.05-.41-.16-.63a3.3 3.3 0 0 0-.33-.49c.12.05.26.07.4.04zm-.71.25c.11-.09.2-.2.24-.29.13.16.26.33.35.52.12.22.17.43.16.63a.94.94 0 0 0-.18.12c-.28-.31-.6-.59-.95-.83a.79.79 0 0 0 .38-.15zm-.5.62a1 1 0 0 0 .08-.41c.35.23.66.5.94.81a.9.9 0 0 0-.16.24 3.34 3.34 0 0 0-1.14-.28c.12-.1.23-.22.29-.36zm-.34.42a3.26 3.26 0 0 1 1.17.28l-.96 4.4-.29 1.29-.06-.02a6.28 6.28 0 0 1-1.14-.29l1.28-5.66zm.36 4.25c1.29.37 2.44.83 3.23 1.31.8.48 1.18.93 1.09 1.28a.45.45 0 0 1-.14.22c-.17-.76-1.9-1.74-4.27-2.4l.1-.4zm-1.4.1c-2.39-.5-4.34-.44-4.8.13a.46.46 0 0 1-.03-.3c.18-.71 2.3-.82 4.92-.26l-.1.42zm-.02.05-.2.86a.54.54 0 0 0-.14-.02.22.22 0 0 0-.16.07c-.07.08-.05.2.01.26s.14.11.22.14c.38.15.78.23 1.17.3.06.02.11.03.17.03a.4.4 0 0 0 .07 0c.08-.03.17-.09.18-.18a.2.2 0 0 0-.06-.17.33.33 0 0 0-.14-.08l.2-.89c2.34.66 4.1 1.65 4.22 2.38-.28.2-.83.33-1.6.34-1.06.02-2.43-.17-3.85-.52-2.38-.6-4.37-1.57-4.82-2.35l-.02-.03c.4-.56 2.4-.62 4.75-.14zm-.28 1.24c-.06-.03-.12-.06-.16-.1s-.06-.14-.01-.2a.16.16 0 0 1 .11-.04l.13.02-.07.32zm1.4.04c.04.01.07.03.1.06s.05.07.04.11c0 .06-.07.1-.13.12h-.08l.06-.3zm-5.02-2.57c.78-.08 2.13-.1 4.11.33l-.09.42c-1.27-.27-2.47-.4-3.38-.35-.95.05-1.52.28-1.61.65-.04.13 0 .28.08.44.47.8 2.47 1.77 4.87 2.38 1.35.34 2.66.53 3.71.53h.16c.78-.02 1.35-.14 1.64-.36v-.01a.47.47 0 0 0 .2-.29c.1-.37-.29-.85-1.1-1.34-.8-.49-1.96-.95-3.25-1.32l.09-.42c3 .85 4.52 1.97 4.95 2.74.13.24.17.47.11.66-.16.56-.87.97-1.95 1.13l-.03-.01-.02.01-.24.03c-1.3.14-2.9-.04-4.5-.5-2.95-.86-4.8-1.86-5.34-2.91a1.34 1.34 0 0 1-.1-1.08c.11-.35.75-.63 1.7-.73zm8.3 6.38c-.8.11-1.7.1-2.5 0 .15-.37.24-.74.27-1.13a11.2 11.2 0 0 0 2.42 0c.02.41-.04.76-.18 1.13zM27.5 15.8l.1-.64c.03.18.09.36.18.55.27.51.83 1.01 1.68 1.49a17.93 17.93 0 0 0 5.98 1.91c-.03.39-.12.77-.27 1.13l-.18-.03c-.8-.11-2.57-.5-4.16-1.08-2.04-.75-3.24-1.62-3.48-2.53l.15-.8zm7.93 15.14c-.04.06-.62.83-2.02.97-1.46.15-4.6-.38-5.95-1.42-1.28-.98-1.33-1.53-1.34-1.57l1.57-11.58c.2.26.49.5.84.75.58.39 1.35.76 2.28 1.1 1.6.59 3.37.97 4.17 1.09l.18.02.01.01h.04c.43.05.9.08 1.35.08.82 0 1.62-.1 2.25-.35l-3.38 10.9zm4.2-12.12-.27.86c-.15.1-.32.2-.51.28-.31.13-.67.22-1.04.28.14-.37.2-.72.17-1.12.89-.13 1.51-.41 1.82-.82l-.17.52z"/><path fill="#070707" style="fill:var(--color25,#070707)" d="M35.87 23.7a.69.69 0 0 0-.66-.01 1 1 0 0 0-.28.2c.08-.2.09-.41.03-.6a.82.82 0 0 0-.67-.6.93.93 0 0 0-.7.26c-.12.1-.22.24-.3.36.04-.18.04-.35 0-.5a.91.91 0 0 0-.43-.63c-.38-.2-.85-.03-1.12.21-.25.24-.42.55-.55.85 0-.25-.04-.45-.12-.62a.81.81 0 0 0-.57-.46c-.28-.05-.59.1-.8.37-.12.17-.2.38-.27.58a.62.62 0 0 0-.34-.44.8.8 0 0 0-.78.13c-.19.14-.34.35-.46.65-.15.37-.22.77-.2 1.17 0 .16.02.38.13.57.1.16.3.3.52.28.18-.03.34-.16.47-.39v.53c.02.16.07.4.24.59.26.28.73.35 1.1.16.26-.14.46-.4.56-.71V26a1 1 0 0 0 .22.6c.22.25.63.34 1 .22.34-.11.58-.37.73-.59.02.2.1.4.23.54.17.18.43.26.66.2.2-.04.4-.19.52-.4.08-.15.14-.3.18-.47v.02c.02.16.04.32.1.47.09.2.28.4.53.4h.01c.15 0 .32-.07.46-.21.23-.22.36-.52.46-.82.13-.35.23-.73.33-1.16.04-.18.08-.38.05-.58a.7.7 0 0 0-.28-.5zm.17 1.09c-.1.42-.2.8-.33 1.15-.1.28-.22.58-.44.79a.61.61 0 0 1-.43.2c-.22-.01-.4-.19-.47-.37-.06-.14-.08-.3-.1-.46 0-.05 0-.1-.02-.16 0-.02-.01-.03-.02-.03l-.04.02c-.05.2-.1.42-.21.6-.12.2-.3.34-.48.38a.65.65 0 0 1-.6-.2.82.82 0 0 1-.21-.59s0-.02-.02-.03h-.01c-.01 0-.02 0-.03.02-.14.23-.4.52-.76.65-.34.11-.72.03-.93-.2a.93.93 0 0 1-.21-.57v-.26l-.01-.34-.03-.03c-.02 0-.03.02-.03.03-.05.4-.27.74-.58.9-.34.19-.79.12-1.02-.14a.98.98 0 0 1-.22-.55l-.01-.36v-.29l-.02-.03c-.01 0-.03 0-.04.02-.13.28-.29.44-.48.46-.19.02-.36-.1-.45-.25a1.1 1.1 0 0 1-.13-.54 2.8 2.8 0 0 1 .2-1.15c.11-.28.26-.48.44-.62.22-.16.5-.21.71-.12a.54.54 0 0 1 .3.62c0 .01 0 .03.02.04s.04 0 .04-.02v-.03c.09-.27.17-.54.34-.77.19-.25.48-.38.73-.34.21.03.41.2.52.42.1.2.13.43.11.75 0 .02.01.03.03.03l.03-.01c.15-.34.32-.71.6-.97.26-.23.7-.4 1.05-.2.2.1.35.31.4.57.05.23.03.47-.07.75 0 .01 0 .03.02.04s.03 0 .04-.02c.09-.18.22-.41.4-.59.2-.17.44-.26.66-.24.28.04.54.26.62.55a.96.96 0 0 1-.18.84l.01.05.04-.01a1.12 1.12 0 0 1 .46-.44c.21-.1.45-.09.6.02.15.1.24.26.26.46.02.19-.01.37-.05.56z"/><path fill="#f87719" style="fill:var(--color17,#f87719)" d="M28.8 24.95c-.1.22-.26.45-.5.48-.2.03-.39-.1-.49-.26s-.13-.36-.14-.55c-.01-.4.06-.8.2-1.16.1-.25.24-.48.45-.64s.51-.23.75-.12c.25.1.4.4.32.65.08-.28.17-.57.34-.8s.47-.4.77-.36c.24.04.44.23.54.44s.13.47.11.77c.16-.36.33-.72.61-.98s.74-.4 1.08-.21c.23.12.37.35.42.6s.02.5-.07.76c.1-.22.23-.43.42-.6s.43-.27.68-.25c.3.04.56.28.64.57s.01.6-.18.87c.12-.18.27-.35.47-.44s.45-.1.63.01c.16.11.25.3.27.5s-.01.37-.05.56c-.09.4-.2.78-.33 1.16-.1.3-.23.59-.45.8a.64.64 0 0 1-.45.2c-.22 0-.41-.17-.5-.37s-.09-.43-.12-.64c-.05.21-.11.42-.22.6s-.28.35-.5.4c-.22.06-.47-.03-.63-.2s-.22-.4-.21-.62c-.19.3-.45.56-.78.67s-.74.04-.97-.22c-.14-.15-.2-.37-.21-.58s.02-.42-.01-.6c-.05.38-.26.75-.6.93s-.8.14-1.06-.15c-.14-.15-.2-.36-.23-.57s0-.42 0-.65z"/></symbol><symbol id="icon-close_X" viewBox="0 0 32 32"><path fill="none" stroke="#f8f8f8" style="stroke:var(--color1,#f8f8f8)" stroke-linejoin="round" stroke-linecap="round" stroke-width="4" d="M30 30 2 2m28 0L2 30"/></symbol><svg id="search" width="20" height="20" viewBox="0 0 20 20" fill="none" xmlns="http://www.w3.org/2000/svg"><path d="M9.167 15.833a6.667 6.667 0 1 0 0-13.333 6.667 6.667 0 0 0 0 13.333ZM17.5 17.5l-3.625-3.625" stroke="#fff" stroke-width="1.3" stroke-linecap="round" stroke-linejoin="round"/></svg></defs></svg>