<?xml version="1.0" standalone="no"?>
<!DOCTYPE svg PUBLIC "-//W3C//DTD SVG 20010904//EN"
 "http://www.w3.org/TR/2001/REC-SVG-20010904/DTD/svg10.dtd">
<svg version="1.0" xmlns="http://www.w3.org/2000/svg"
 width="512.000000pt" height="512.000000pt" viewBox="0 0 512.000000 512.000000"
 preserveAspectRatio="xMidYMid meet">

<g transform="translate(0.000000,512.000000) scale(0.100000,-0.100000)"
fill="#000000" stroke="none">
<path d="M0 3858 c1 -1100 3 -1259 15 -1230 22 50 72 90 129 103 33 7 149 9
326 7 307 -3 314 -5 367 -75 24 -31 28 -46 28 -103 0 -57 -4 -72 -28 -103 -55
-72 -55 -72 -403 -72 l-310 0 -43 28 c-27 18 -50 44 -62 70 -18 42 -19 28 -19
-1220 l0 -1263 1263 0 c1099 1 1258 3 1229 15 -50 22 -90 72 -103 129 -7 33
-9 149 -7 326 3 307 5 314 75 367 31 24 46 28 103 28 57 0 72 -4 103 -28 70
-53 72 -60 75 -367 2 -177 0 -293 -7 -326 -13 -57 -53 -107 -103 -129 -29 -12
130 -14 1230 -15 l1262 0 0 1263 c-1 1099 -3 1258 -15 1229 -22 -50 -72 -90
-129 -103 -33 -7 -149 -9 -326 -7 -307 3 -314 5 -367 75 -24 31 -28 46 -28
103 0 57 4 72 28 103 53 70 60 72 367 75 177 2 293 0 326 -7 57 -13 107 -53
129 -103 12 -29 14 130 15 1230 l0 1262 -1262 0 c-1100 -1 -1259 -3 -1230 -15
50 -22 90 -72 103 -129 7 -33 9 -149 7 -326 -3 -307 -5 -314 -75 -367 -31 -24
-46 -28 -103 -28 -57 0 -72 4 -103 28 -70 53 -72 60 -75 367 -2 177 0 293 7
326 13 57 53 107 103 129 29 12 -130 14 -1229 15 l-1263 0 0 -1262z m935 543
c49 -23 449 -423 465 -464 49 -134 -81 -271 -217 -227 -29 10 -90 65 -254 229
-193 192 -217 221 -227 261 -21 84 17 167 92 201 52 24 90 23 141 0z m3392 0
c91 -42 123 -153 71 -242 -15 -24 -116 -132 -225 -240 -160 -159 -206 -199
-238 -208 -73 -20 -118 -10 -169 37 -51 48 -70 124 -46 189 16 41 416 441 465
464 51 24 89 24 142 0z m-1515 -581 c254 -52 468 -169 658 -360 250 -251 374
-549 373 -900 0 -286 -86 -539 -260 -771 -250 -332 -609 -512 -1023 -512 -201
-1 -392 43 -561 128 -366 185 -616 509 -700 908 -31 143 -31 351 0 494 55 262
169 471 361 663 220 220 474 339 795 374 76 8 260 -5 357 -24z m-1509 -2414
c85 -36 128 -137 97 -223 -16 -41 -416 -441 -465 -464 -51 -23 -89 -24 -141 0
-75 34 -113 117 -92 201 10 40 35 69 227 262 220 220 239 235 314 237 15 1 42
-5 60 -13z m2642 -5 c25 -12 116 -96 247 -227 168 -170 208 -217 218 -251 24
-80 -13 -162 -90 -201 -103 -52 -138 -32 -392 224 -168 170 -208 217 -218 251
-24 80 13 162 90 201 54 27 92 28 145 3z"/>
<path d="M2370 3476 c-363 -84 -616 -324 -716 -682 -22 -77 -30 -314 -15 -397
76 -398 375 -695 765 -757 95 -16 310 -8 390 14 271 75 480 243 598 481 71
141 98 261 98 425 0 164 -27 284 -98 425 -118 238 -324 404 -598 481 -77 22
-346 28 -424 10z"/>
</g>
</svg>
